<mxfile host="app.diagrams.net" modified="2023-05-21T22:29:24.298Z" agent="Mozilla/5.0 (Macintosh; Intel Mac OS X 10_15_7) AppleWebKit/537.36 (KHTML, like Gecko) Chrome/112.0.0.0 Safari/537.36 OPR/98.0.0.0" etag="MCmaGWPHK_EvWaieQFQq" version="21.3.2" type="github">
  <diagram name="Page-1" id="gs0pLVagQkpj5RPHp093">
    <mxGraphModel dx="2092" dy="776" grid="1" gridSize="10" guides="1" tooltips="1" connect="1" arrows="1" fold="1" page="1" pageScale="1" pageWidth="827" pageHeight="1169" math="0" shadow="0">
      <root>
        <mxCell id="0" />
        <mxCell id="1" parent="0" />
        <mxCell id="k795cpsEZ2L50x8XWClP-7" style="edgeStyle=orthogonalEdgeStyle;rounded=0;orthogonalLoop=1;jettySize=auto;html=1;exitX=1;exitY=0.5;exitDx=0;exitDy=0;fillColor=#a20025;strokeColor=#6F0000;strokeWidth=2;" parent="1" source="k795cpsEZ2L50x8XWClP-1" edge="1">
          <mxGeometry relative="1" as="geometry">
            <mxPoint x="360" y="313" as="targetPoint" />
            <Array as="points">
              <mxPoint x="354" y="313" />
            </Array>
          </mxGeometry>
        </mxCell>
        <mxCell id="k795cpsEZ2L50x8XWClP-1" value="" style="shape=datastore;whiteSpace=wrap;html=1;" parent="1" vertex="1">
          <mxGeometry x="50" y="283" width="60" height="60" as="geometry" />
        </mxCell>
        <mxCell id="k795cpsEZ2L50x8XWClP-2" value="" style="shape=datastore;whiteSpace=wrap;html=1;" parent="1" vertex="1">
          <mxGeometry x="20" y="353" width="60" height="60" as="geometry" />
        </mxCell>
        <mxCell id="k795cpsEZ2L50x8XWClP-9" style="edgeStyle=orthogonalEdgeStyle;rounded=0;orthogonalLoop=1;jettySize=auto;html=1;exitX=1;exitY=0.5;exitDx=0;exitDy=0;fillColor=#a20025;strokeColor=#6F0000;strokeWidth=2;" parent="1" source="k795cpsEZ2L50x8XWClP-3" edge="1">
          <mxGeometry relative="1" as="geometry">
            <mxPoint x="320" y="383" as="targetPoint" />
          </mxGeometry>
        </mxCell>
        <mxCell id="k795cpsEZ2L50x8XWClP-3" value="" style="shape=datastore;whiteSpace=wrap;html=1;" parent="1" vertex="1">
          <mxGeometry x="90" y="353" width="60" height="60" as="geometry" />
        </mxCell>
        <mxCell id="k795cpsEZ2L50x8XWClP-10" value="" style="sketch=0;aspect=fixed;pointerEvents=1;shadow=0;dashed=0;html=1;strokeColor=none;labelPosition=center;verticalLabelPosition=bottom;verticalAlign=top;align=center;fillColor=#00188D;shape=mxgraph.mscae.enterprise.monitor_running_apps" parent="1" vertex="1">
          <mxGeometry x="950" y="240.13" width="102.24" height="79.75" as="geometry" />
        </mxCell>
        <mxCell id="k795cpsEZ2L50x8XWClP-12" value="" style="image;aspect=fixed;html=1;points=[];align=center;fontSize=12;image=img/lib/azure2/other/Web_App_Database.svg;" parent="1" vertex="1">
          <mxGeometry x="-18.53" y="585" width="100" height="100" as="geometry" />
        </mxCell>
        <mxCell id="k795cpsEZ2L50x8XWClP-14" value="" style="ellipse;shape=cloud;whiteSpace=wrap;html=1;fillColor=none;" parent="1" vertex="1">
          <mxGeometry x="-91.47" y="426.65" width="261.47" height="283.35" as="geometry" />
        </mxCell>
        <mxCell id="k795cpsEZ2L50x8XWClP-13" value="" style="sketch=0;pointerEvents=1;shadow=0;dashed=0;html=1;strokeColor=none;fillColor=#434445;aspect=fixed;labelPosition=center;verticalLabelPosition=bottom;verticalAlign=top;align=center;outlineConnect=0;shape=mxgraph.vvd.on_demand_self_service;" parent="1" vertex="1">
          <mxGeometry x="-27.049999999999997" y="470" width="117.05" height="99.5" as="geometry" />
        </mxCell>
        <mxCell id="k795cpsEZ2L50x8XWClP-18" value="" style="image;aspect=fixed;html=1;points=[];align=center;fontSize=12;image=img/lib/azure2/iot/Stream_Analytics_Jobs.svg;" parent="1" vertex="1">
          <mxGeometry x="122" y="500.01" width="168" height="143.29" as="geometry" />
        </mxCell>
        <mxCell id="k795cpsEZ2L50x8XWClP-27" value="&lt;b&gt;External&lt;br&gt;Databases&lt;br&gt;for Sales history&lt;/b&gt;" style="text;html=1;strokeColor=none;fillColor=none;align=center;verticalAlign=middle;whiteSpace=wrap;rounded=0;" parent="1" vertex="1">
          <mxGeometry x="-70" y="313" width="140" height="30" as="geometry" />
        </mxCell>
        <mxCell id="k795cpsEZ2L50x8XWClP-28" value="&lt;b&gt;CRM&lt;/b&gt;" style="text;html=1;strokeColor=none;fillColor=none;align=center;verticalAlign=middle;whiteSpace=wrap;rounded=0;" parent="1" vertex="1">
          <mxGeometry x="-30" y="490" width="140" height="30" as="geometry" />
        </mxCell>
        <mxCell id="k795cpsEZ2L50x8XWClP-29" value="&lt;b&gt;Web Analytics&lt;/b&gt;" style="text;html=1;strokeColor=none;fillColor=none;align=center;verticalAlign=middle;whiteSpace=wrap;rounded=0;" parent="1" vertex="1">
          <mxGeometry x="20" y="600" width="140" height="30" as="geometry" />
        </mxCell>
        <mxCell id="k795cpsEZ2L50x8XWClP-30" value="&lt;b&gt;Event Tracking&lt;br&gt;Tool&lt;br&gt;&lt;/b&gt;" style="text;html=1;strokeColor=none;fillColor=none;align=center;verticalAlign=middle;whiteSpace=wrap;rounded=0;" parent="1" vertex="1">
          <mxGeometry x="160" y="650" width="140" height="30" as="geometry" />
        </mxCell>
        <mxCell id="k795cpsEZ2L50x8XWClP-31" value="&lt;b&gt;Reporting&lt;/b&gt;" style="text;html=1;strokeColor=none;fillColor=none;align=center;verticalAlign=middle;whiteSpace=wrap;rounded=0;" parent="1" vertex="1">
          <mxGeometry x="1040" y="380" width="140" height="30" as="geometry" />
        </mxCell>
        <mxCell id="32wc3V-l8G8s6lL-Zdti-2" value="" style="ellipse;shape=cloud;whiteSpace=wrap;html=1;fillColor=none;" vertex="1" parent="1">
          <mxGeometry x="400" y="319.88" width="220" height="200" as="geometry" />
        </mxCell>
        <mxCell id="32wc3V-l8G8s6lL-Zdti-4" value="" style="shape=image;verticalLabelPosition=bottom;labelBackgroundColor=default;verticalAlign=top;aspect=fixed;imageAspect=0;image=data:image/png,iVBORw0KGgoAAAANSUhEUgAAA9UAAAPUCAQAAAAJH9IxAAAABGdBTUEAALGPC/xhBQAAACBjSFJNAAB6JgAAgIQAAPoAAACA6AAAdTAAAOpgAAA6mAAAF3CculE8AAAAAmJLR0QA/4ePzL8AAAAJcEhZcwAAAGAAAABgAPBrQs8AAAAHdElNRQflAxoKCzVKiXWEAACAAElEQVR42uydZaAWxdvGrz0culu6JASRUqRLkFARA1tsbLDr/9rdhY0CtmKCAsoBDiWIdIcFSHfHiev9AChx4pnZnZ3Z57l/9xfiuWbvmdnde6c9QhAEQYgmGZyLxViDlViHLdiPbdiLPQB2Yf8xv92B9CP+Xhj5/v1zMooe/FM+FEZh5EMJFERplEZplEdV1EBpz3ZeExlPQrUgCEL0yOQ3eBdTsDOk6xVDU7TGaegAT4J26EioFgRBiBzLeTbmWLny8XgcF0mwDhkJ1YIgCBHjL7bBaovXfwwPSrAOFQnVgiAIkSKNbTDNqgfJmImGEqxDJMm2A4IgCIIK71oO1EA6nrRdCAmGtKoFQRAiRQMutO0C8mApakq7OjSkVS0IghAhxjkQqIEMDLLtQkIhoVoQBCFCvGXbgYMMRoZ0yoaGdIALgiBEhq0sn8XmJnYYjc7SBR4S0qoWBEGIDN87E6iBD207kEBIqBYEQYgMX9t24DC+wjbplg0JCdWCIAgRYQdH23bhMPbgK9suJAwSqgVBECLCcOy17cIRfGLbgYRBQrUgCEJEGGrbgaOYgI3SBR4KEqoFQRAiwS7+ZNuFo8jACNsuJAgSqgVBECJBCvbYduEYvrPtQIIgoVoQBCESuNiC/Qm7pQs8BCRUC4IgRIJRth3Igt1waU56/CKhWhAEIQLM4QrbLmTJ97YdSAgkVAuCIEQAF7u/AWAY0qUL3DgSqgVBECKAq6F6EybbdiEBkFAtCILgPFs41bYL2eLqR0Q8kWzbAUEQBCE3RiFdU1kOp6IWSqIkSiFfTIp78ZfSFX7Gs5ZLJ/6RUC0IguA8P2upTsKT6IEkxaMqU/mm0u/nYD3LyXGYRpEOcEEQBOcZp6G5DL/hTE81UANdFH9PjLFTKAmEhGpBEATH+YPLlTWdMQj5tNq6HZW7W2VttWkkVAuCIDiOepu6CAYiWbNTurjXXFEhodo0EqoFQRAcZ6yy4hZU8zF63Fnx9/9gsaytNoqEakEQBKchVVvV+XGbryuqjlbrTnsTYkVCtSAIgtMswlpFRU+U9zUjuwWKKSpSwi2ShENCtSAIgtOoj1T38XnFZK+9oiIVadIFbhAJ1YIgCE6jOlJdHKf7vuZpir/fgV9DK49EREK1IAiCw5DjFRXdNBdpHU5HZYWql4IKEqoFQRAcZhE2KSrOCuCqDVFWUSGh2iQSqgVBEBxmkuLvPeXO6yxTUR6tnoz9MlptDAnVgiAIDqN6xOSJOC6Q/bhVu8B3Y0Y4BZKQSKgWBEFwGNVWdRBtagDopKyQLnBzSKgWBEFwlrX8U1GhHmKzpp5XSVEhodocEqoFQRCcRbVNnYx2gV1bdbR6kqytNoaEakEQBGdRHak+GcUDOzladbR6J2aaL5AERUK1IAiCs6iG6qC6v/XSki5wU0ioFgQhwfiSjVmOV/I357trd3G2okK10zonanrVFBWpRksjCPbzI7ZidQ5xvu6PREK1IAgJxF/sxgsxBxswBM3RjmOcfmVPQ5rS75PRMtDrq6+tTne4PNP5Ho9HH0zBclyJy7nLYV+PRkK1IAgJwzA2w0+H/X0iOqM1hzv7yp6o+PvGKBrYSDWgHqq3Y7bR8tAnk0PZAH2x8t9/+Rit8I+zNX80EqoFQUgI0nkHe2HLMf/+C3qiHcc6+dL+RfH3bQO+vnp3eqqpovAB+T0b4wIsPerf56INFjpZ78cioVoQhARgC7vjZWT3Xp6I09DJubHrDE5VVAQdqmvFwdrqX9gKvTAvy/9bjjZIdazWs0ZCtSAIcc8fbI2UXH4zDqfiAv7u0It7HrYp/d5D68B9UF2lPREZDpXgSvZhG+T0wbMFXfGxQx5nh4RqQRDinElsjkUx/I4Yiga4nZsceXWrLtSqh3KBjlQDQAfF329zZrR6K+9ibXyE3CpzP/rgKUdqPHskVAuCENf8wK7YHPOv9+MVVMcj3OPAy1t1p7Lg9inzk6YLXeBpfJd18SL2xfRr4n+4lXSgxrNHQrUgCHHMhzwHuxU1O/Eo6mAIMy2/vG1PKgOAuiivqLAfqofxRFyP9UqaAejrVNf90UioFgQhbnmRVyJdS/kPrkQLTLH48l7BFYoKE6Fa/dzqibD5ibOIXXn2MXO9Y2EgLnV4D3MJ1YIgxCXkI7wr15HKnPgNrXAW/7b0+lbt/q6OqoGPVAPqXeBbMNdMgeTKVt7HxvhZW/8FesGFgY+skFAtCEIcksHr8WgA6fyABriPOy28wFUnlZkYqQZ01lbb6ALP5Iesi2ex31cqI9AN250M1hKqBUGIO/bxIrwXUFq78Szq4cPQpx2ptqpNdH8DQAOUUVSEH6qnsRWuUBydzpoJ6ISNDgZrCdWCIMQZu3kmvgo0xVW4Au0wM8RX+DYuUFSYCtWep5ryhFBHq1fyIrbAr4GlNwMdsda5YC2hWhCEuGI3z8p1uxMdJuEU9OWGUF7iO/g8MpQU5VHHmDcdFH+/CfON+XIke/g46+ELXzMSjmU+OmC1Y8FaQrUgCHHELp6BsYbSzsR7qIvXafb0qJW8h1XwpKKqLTwjk8oAoLOyYgj2hhDqvmZ9PKS8FC8WlqCDY0d5SKgWBCFu2MkzDB8YsQX90BTjDL3Gp/MS1sLzihuKAuYmlQFAfeWdwF9CZdzBxQaD3QJ25vn421j6y9ABKxwK1hKqBUGIE3axZyhTmuahU+CLuDI5nF14Cj5TPKH6EOotXxVOU1Zswss4ASfzXe4OPOBt5X1sijFGcwz8gbb4w5lg7TnjiSAIgg928cxQj2AsiHtwHwoE0O28l1/imZh2Kc+OGvjTWPc3AHzIK7S1JXABbkHDgPzL5Me4O5C53rFQBWNxvNGSjRUJ1YIgxAG7eIaFRUJV8AT6+HqVr+NbGIBNPv24GQOMBpTVrOxz6lYz9MVlKOTTy2nsF+Bc71g4DmNQ34FgLaFaEITIs51doXq2c1B0xSuop/Uyn8WX8YXPTTsOMBxnGg4nDel/VndpXIHrNMsK+If34POA53rHQkWM0fY5OGSsWhCEiLObZ1oL1MBPOAl3U22PK3IET2NTfBRIoC6ATsZzeUYAaWzCS6iPDvyU+xQj7l4+yXr4zEKgBlajIxZab9NKq1oQhEizn+dghG0ncBwexbVIiqH1tZ+f4/lAVx53w0jjrb6JDHKOudr49XDehj9NZzBHymGc5W5wCdWCIESYdF6Ab207cZCWeA0n5/hC38K38TrWBHzd93Ct8TCSzvIKp37Hgod26IvzkD9H3xexP0abzlwMVEQqalsM1hKqBUGILOR1eN+2E4fh4TK8gHJZvtL/5tt4W2PFdG4UxmoUCyGIXMLPDKSaU/t6K5/By4EMEQRBZaSilrVgLWPVgiBEFPJmpwI1QHyEelnsZ/YbL+TxeNZAoAbOCyVQA2caSXUr3kWjLMavMzkwgJOyguQfdIKtA1GlVS0IQmS5j8/adiEb6uJVdPUAgByDV/GDwWulon0ooXobyxkNnIe3r39jP4sTBbOnKlJRw0rLWkK1IAiR5Ak+aNuFHLkATyAVL2Gx0avUwjKDu38fSQ+ONHwFD+1wFVLwibG53sWxU/EglCOphVRUthCsJVQLghBBXmN/32nUwFcYgMFWlgAFxVu4IbTA8T6vtZ1dX3i4As8iBX18BevaSEXF0IO1hGpBECLHUF6ETJ9p1EAqqnrAJN6EebYzpElVLEO+0MLGRlZAuu0sa9MUA9DSA4BP6S9Y10Uqjgs5WMu0MkEQIsYk9vEdqKthDKp6ANDGm4lXUMx2prR4McRADZTxutvOsCYl8QqmHQzUwCXep0j2kdoSdMGmkFu5EqoFQYgUS9gLe32mUQMTDpselOz19xbgPNsZU+YMnB9y2+4a21nWIAl9sRT9vTyHldUF3mDk8ZHmfPTAjlCDtYRqQRAixDr28H24xaGu78Op7H3ljUQt29lToCoGh37NnvifrxAXPs3xK97xyhzzSXOpN8RXTqahJ/aEGKwlVAuCEBl28SzfW0xmFagP0M2bj4dQwHYmY6IUfkSZ8Cc3eU94U9DSduZjpCwGYkq2+8f5Ddap6I200IK1hGpBECJCBi/Gbz7TyD5QA0AB71FvLk63ndFcqYQUnGhp56xTvF+8H9DEdhHkQh7cjCW4xstpV3a/wfpH9EFGSMFaQrUgCBHhVgz3mULOgfoAtb2fvC9QyXZmc+A0TEMTq4dHnOHNwFDUt10Q2dIa0zHAK5lrGfkN1p/jRjCUYC2hWhCESPAq3/KZQiyB+gAXeItwm69ZwqaoiIEYbWFd79F43vnePHyL1rYdOYbjMAQT0TjGEvIbrN/D3aHkStZVC4IQAcayq881vbEH6kPM4Y2YYjvjh3E8+uNqFLIepo9kCl/Et74XzwVDMm7BIyiuWEIf80pf66yfwv3G60RCtSAIzvM3T8FGXylUx3jFQA0A5Pu4z/eMc/+URm9cjDYxnYdtg9/5MgZjt2Uv2mOA5gi+v2Dt4WNcYrhmJFQLguA4+9gKM32lUBETtA8w3Mh7Mcja5qMlcDYuQBfkdTRI/8dWDsLbWGrp6hXxAi7ysRu6v2CdH6PQwWgNSagWBMFxbucrvvRlkYr6vl6kk3kT5oac65I4G+ejS6j7kfmFHI038YOv7mR18qE/HkRRn+XkL1iXxCSf91jOSKgWBMFpRvBMX23aEhgbwHzpDL6Lh3x2wsdKEk7HNegZqSB9OMv5Dt7H+pCu1hMvoHYgJeUvWFfHFIM7g0uoFgTBYXawHlb70BfBT2gV0At0Cx/Fm0gzmt9quApXaYyqu8Z+foeBGGN4utlJeAmnBVhW/oJ1M4xHYUM1J6FaEASHuZsv+FAXwA+BvsqBRbwdPxnJaRK64Vac7uzUMR3+4vsY5OtTK3vK4TFcizwBl5a/YH0ZPpJQLQhCorGOVbHfh/5jXGrg1fkD7wx4+lQxXIVbcHwcBen/SOdIvIcRgY5f50N//E95UVZs+AvWg3GFEa8kVAuC4Cw/8kwf6rvwvKHgt5+v4wlsDSSt43Eb+vieFOU6K/g63sO2AFJKwqV49LBz0YLHT7CuiuUSqgVBSCyWsJ62thmmItngC30zn8Xr2OMrjca4D+cH3onrKjs4CK/hDx8peDgbT6CB8fLSD9YtMEVCtSAIiQVZC39pKfNgBhoZf6Wv4qMYpLmLWjvch24+VgJHk0x+j5cwSUt7Gp7EqSGVl26wHoI+RjyUPcAFQXAWz7tIU3lmCIEaqOS9683H+VC7lIeemIzxXncv0QI1kOSd4030xijvHd4JKUjxwgrUwGVeJw1VFejer7khoVoQBIe5UvMlZeqVeSx1vaHeNHSJ8dd5cQXm43svqAVk0aSTN8kbheYx/TYJ5+M3jPGCncmfGykcraF60NhaeOkAFwTBac7iDxqqyYGtpo6VaXwaw3JcR1wB1+B6VE7oIH0kX/B2rMnh/wuiD+6yMDN+HxthibLqeCw0tgGstKoFQXCa27RUeiPcfmjufevNxeVZHp3p4TQMxXI87kmgPpwLvZnZnnrdEm9jNd72bCxhe0EjUAOPGNypXVrVgiA4TiOq77/dDSMtBcW/+TI+wpaDf/PQEufjvDjYf8wUf7HXEfurJ6MpOqMP6lorsb94osYpYSdijsHtayRUC4LgOIN4tYZqPNpZe9nv5TCMRQE0xWmoJEE6FzI4EhOxFcmoiFPQCkUsl1hPDtdQfYteclyHIAiJyz5WwzplVUPMNLquWohPhvFsDVUL/GJ04Z2MVQuC4Dj5vZs1VPMwwLbjQuTYzX4aKg8vGF4hL61qQRCcZztrYLOyqhgWoaK0qwUFHuDTGqoL8IXh+0xa1YIgOE8x704N1XbcZ9txIVIs5Usaqnx40rhnEqoFQYgA/VFOQ/UxUqXjUIiZG7FPQ9UvhJXfEqoFQYgAhb27NVTELUiTYC3ExKccq6EqiftD8E1CtSAIkeAWVNJQLcCbth0XIsF26nwMAo+iVAjzISRUC4IQCQp492jpHsZaaVcLufIgVmuo6uCGULyTGeCCIESEvayNfzR0V2KQzAMXcmQWT9E69PJ79Azl3pJWtSAIEaGA939auiGYKm0SIQcyeZNWoD49pEAtrWpBECJEBptgnoauGaYZ3J9ZiDrvsa+GKhmzcGJId5W0qgVBiAx5vJe1dDMwyLbrgrNs5gNauptDC9TSqhYEIWL04EgNVTksQQlpVwtZcC3f11CVwlKUDu2Okla1IAiR4iXk1VCtx6O2HRecZBr1elyeCjFQS6taEITIcQvf0FAlYyYaSrtaOIIMnozZGroGmB3quW3SqhYEIWI8gpIaqnTcbttxwTkGaAVqYEDIB6xKqBYEIWKU8R7U0o3B19KNKBzGej6ipeuNDiH3z0gHuCAIkWM/T8QyDV01LEJB6QQXDnIVB2uoCmIhqod8FyWHezlBEAT/5POeZy8N3XI8i0dsOx8q+7gGa7EN27AV25CG7f/+T14UQR4UQzGUQhmURhkUTrCPmKkcoqW7O/RALa1qQRAiSneO0lAVxALUiOuQtJ6LsBRLsBQrsAbrFZSlUBVVUQ01UB8noGpclxKQyZaYpqGrgkUWPmokVAuCEEkWsRHSNHTn4as4DEJr+RumYzp+w4aAUiyKemiCU9EcJyBPHJbYQF6npfsSvS2UhoRqQRAiym18VUs3Cl3jJvRsYSrGYgwWGbxGEZyMDjgNpyJvHJVbXa2PmjaYAE9CtSAIQqxsZR2t123Ya2LNsJzf4GtM1TpmQo/CaItuONvCSG3w9OPrGqo8mImTrOReQrUgCJFF75gFYABujnC4WcOP8CVmWLt+E5yNcyO9ncxSnqg1eHIzBljKtYRqQRAiSyZb4DcNXUksC3VbyKDYz5/wEb7TCjNBUx99cAWOi2ApAufxGw1VKSxBGQnVgiAIqvzCNtB5i/XHKxELMn9wAD7GRttuHEEyuuFGdIvYAaPT2ELrnnkTN1rLp4RqQRAizSX8TEOVjNloEJkAM4Ov4tMQR6XVqIXrcH2Ezi3rxHEaKrszHCRUC4IQaVaxLnZp6HrgxwgEl3R+iZcsjkvHSnHcijsjEa5/4FlaunGhbyZ6OLIHuCAIkaaSd5+WbgRGOd5SyeRQnohLIxCogW14AlVxH7c5X6Z6+8dfaDVQS6taEITIs5f18ZeGrj7mOLtoi/wBD2KObTeUKY1bcCeKOlqqwCe8TENVCIss794mrWpBECJOAe9FLd1CvGXb9WxIYWP0jGCgBjbhUdTBG0x3shVIPqulu9f6NqvSqhYEIQ5ox4kaqlJYhlKOtQB/5wMYatsJ3zTCG2jtWMkCw3i2hqo6Flo/j01a1YIgxAFPaak2O3bO1i4+woZxEKiBOWiLPlzvWFtQr039gvVALa1qQRDiBL2TtpIxCydafxEf4EfeiJW2nQiUkngYtzhz2Mc4dtJQdcIYB/yXUC0IQlwwg6dobWzRDSMdeBWvZz98YdsJIzTHINR3oISBbvxJWZOMmU5soSod4IIgxAXNvDO1dKMwwnqLZSgbxGmgBqahGZ5lpvUy/os/a6hudCJQS6gWBCFuuEVTdyfSLAaSbbyYFzi2YWiw7MV96IbVloP1YI0+l1J42K7T/yKhWhCEOKEL6mrpFuNNaz7/yib43NrVw2M0GuN7i8E6k0M0VE85c6iLhGpBEOIEz7tOU/koNlkIIxl8lK21Nm+JIhvQC9dzr6VwPRbLlTWNca0dZ7NAQrUgCHFDF03dFguLtjayCx5x9ggOM7yLdvjHSrBWP9LFw2vOzF2XGeCCIMQRmSyLzVrKPJgV6gSiOTwnYdrTR1IWQ9E+9BBYk6qlfTE+dSZQS6taEIQ4Isk7QVOZgekh+vllAnV8H80GdMX7IbcRlysHakBnDbY5km07IAiCEBy6rY+quDQkD8n/w9NaK8B1KIAaqIgyKIPSKILi//77fuzCHuzAeqzBWqwLdQb6PlyLOXwpxKNSdM6nHuTQSLWEakEQ4grdsd//IV8ogSON1+JDw9cojEZoisaojZqoBC+mfG3nUizFEizCb/g7hHJ4HUvwNYuEFKx1Dj75BfPoxppqQMaqBUGIIzJZEts1dNWwNJRQvYu9MdJY6mXRAR3RDvV8TofayN/wG8bjF+w1WhotMAIlQwmGF1BnX/Vb8ZqEakEQhKCZy0ZaunfQN4SX8kaeiV+NpNwU5+MMNIyxBR0rezgJYzDK4GGcDfEzjguh5M/n1xqq4liNQo4Ea5lWJghC3DBCS1UNV4bg2zq2NxCoT8Jz+BMzvPu9k7xgAzVQ0OviPePN9pbhGZwMEzFrHtri7xDai+W1VNvwpXnXYkRa1YIgxA2NOFdDFUabei07YVGgKRbGheiLU0Nr9f3NwRiEFYGnWwk/Gz/O43NerKVriV8caVVLqBYEIU6Yz4YaqjDGqYMO1BVxJ65FsdDDSCZH4318h7RAUy2LVMPBeh8bY7GWcq4c1yEIghAkn2qpHgghUHcMMFDXxNv4E3d44QdqIMnr6n3p/YE7UDTAVDfgdMPd4Pm94dBbcf+uSbcUkFa1IAhxAVlTY5mR+Tb1NrYPbGJWSTyGG0Jcj5xTrt7By1gbWHrHY6LhCWZr2RRrlFUlsMqJqWXSqhYEIS6YrLUe2HSbej97BxSok3A5FuMWz4VADRT37vH+wDMoEVB6v+N0bDbacjzOe1lDtdWRqWUSqgVBiAs+0dBUNTz3O5OXYnQgKbXCdHzolXMiTB+ikHevtwy3IX8gqc3DWdhlNFhf6DXXULnRBS6hWhCEOCBNa5OL2w23qfvjqwBSScZjmIAmToXpQ5TxXvYW4/JAQskvOB/pRoP1YxqaKZjtwDixhGpBEOKAkdikrClpeJfnNzkggFSqYzwe9Nw5jjELD70PvSnQmX1/NKNwj1FPu3rtNFQfGPUpNiRUC4IQB+h0f98Mk3tQT+LtAaRyHmailcNh+hDNvZl4JoCu8JcNn7r1sIbmQ+y23q6WGeCCIESebayAPYqaAvgb5Y0Fwb/ZHBt8ppEXr+GGCITp/1jI6/CLzzQKYDyaG8x1O05U1gzClZbrQVrVgiBEns+UAzXQx2Cg3s1evgN1SYyKWKAG6nsT8RoK+kpjL87BGoNtyDs0NPanlkmrWhCEyHMyZyhr5uFEY4HwWr7vM4Va+AH1IhaoD7GIF2C+rxRaIBX5DeU+k3Xwh7JqFhpbrQ1pVQuCEHHmagTqzgYD9Re+A3VHTItsoAZO8KbgEl8pTDU4vSzJ66ehsj21TEK1IAgR5z0Nza3GvPmL1/tM4Qr8hFKRDdQAUMT7xHvGV3h5HT8Z6/K9BqWUNbanlkmoFgQh0uyl+uzvajjDkDdpvATbfKVwEwYhb6QD9QHu9b5HYW01cRU2GgqOhb2rlTW2D8SUUC0IQqT5FFuUNbfA1DrlpzDVl/5uDEDQ507b4kxvHMppq9fgOmOe3YpkZY3dqWUyrUwQhAiTwfpYqqgphJWGOpjn8WTs96F/GI/ESZg+xFJ28XHG9UBcY6g8enK4ssbm1DJpVQuCEGG+UA7UwEWGAnU6r/YRqD08F3eBGqjjpaKatvo2/GGoNanTYvc7WdAP0qoWBCGy7OEJWK6s+gUtjYTEZ3mfD/UzuDfuAvUB/mJHjVo6QGeMNvRZVR2rFDXFsdragZjSqhYEIbI8rBECGhgK1L/zER/qe+I2UAM1vJ9RVlObgi+MtCeTvauUNTanlkmoFgQhoozgixoqU5OVbsdebe0VeMaQV25QxxuBopra27DNSLC+WiP82ZtaJqFaEIRI8isvQaayqgAuM+LNKP6gre2N9+Nm1nd2nOx9jjxayrV43IhHNbzOypopmGdpzFhCtSAIEeRndtVav3wOShsIimk+TtHqio+NLR1ziR7es5rKVzHfSIDUOQLVVrtaQrUgCBFjF+9hd82NRtRHKGPhdSzWVDbAUORLgEANAHd6l2vp0nEzaCBYn43yypqPLe1aJqFaEIQIsZfvsA6e1+j6BoDy6GTAp218UlNZCt+haIIEagB4C3W1dBPwnQFv8nnq7eqtuA+zmBF6uJbFWoIgRIRFHIL3sdFHCrfgdQOB8WE+pqVLxk/olECBGgBmsJXW2vMGmIukwMtqBWsiQ0NXAm3RHu3RJLShCwnVgiA4TiZnYRS+xFzfKU1C68BfrZtYE9u1lG/gpgQL1ID+6vNPcbGB0jqH3/lQF0NbtEc7NEOy4ZqUUC0IgrOs4wSk4AesDiS1KlhuYKb1PXxeS3c93k7AQA1k8nSM0dDVxQIDbdjRPD2AVAqjJVqjDdoaO2VbQrUgCM6xkRMwHilYGGiqd+O5wF+k61kDuzV0jTHV2GvddVaxETZp6AbhysBLjKynsTVtdhRGa7RDB5wS+FRBCdVCgOzmPuzBXuCIs472Y9dhf9uVxUhVXhTJIrXCyHfwT4WQH/lQGHlQLEFfbonCev6KyUjBLM1pYzlj4riFh6iz6rcApqFhAt/L71NnoVQ1LDUwW/4VHwvtsqMQmqANOqMNCgTkr4RqQQlyJVZgPdZgPTZgE7YftB1ZhmATFEQplERJlEI51EJN1MIJKJjAL734YAPHIBUTsMjgNepjQeD3yW5W05rm9iZuTOh7NpOttQ4LfR9XB15uW1n5iMZEkBTEqeiA9mjpuwdFQrUQA+RCjMNkLMIyrc4+sxREW3TDVSiR0C+/aLKHk5FirBV9JE/igcDvkDd4i4aqO36M+93JcmMmm2vMvT4R8wyU281803BuC6I1OqMzmmrXu4RqIVe+4yOYY9uJXCmJB3Bnwr8Ao0ImZyEFKZjkY99sNTz8gRoB3x0ZrIfflVXlMBfl5T7FTXxLQzUe7QIvu79YW2vJljpl0QGd0Q1VlfMgoVrIhaG8EFG5S67A+wmxRWOU2ciR+AEp2BzyddtgYuB3xnD21FB9jgvlHgWwmfWwQVl1PoYaKL3z+XWoeW+ALuiBDsgbc14kVAs5spfHK5/qapPXcKu8Bh3lTw7HDxiPNCtX/xiXBn5n9ORwZU17pModepCBVD/lLBl/okrgJfgbm1vIf2F0RG/0immyrIRqIUde4N22XVCiOP6WMWvH2M+xGI4fNU6WDo7jsDzwucOrWE252zQPZqCR3J8HyeCJGnun34+nDJRgW06yVAoFcBp6oSfK5Zgr2QNcyIE9fM62C4psw2DbLgj/ks6feDWPQ3e8aTVQA30NLPL5QGN883oJ1IeRx3tIQ/Ue9hpoYdprkuzFj7gOFdCWb3JLtjmTVrWQA0N4pW0XlDkeSwzsFSyokckJ+AJf+dqvOzjyYjkqBHxPZLKm8udHKSw1cgRndMlkQ41tbr7CeYGXYiZPwgLbxYH8OBtXoGsWM26kVS3kwDu2HdDgd4yz7UKCs5nPshY64m1HAjVwReCBGhiv0U9wjwTqo0jSald/ZsSTR20XBoB9+BJnoAru4eKjWtHSqhayZS4b2XZBi6vwgbwQrTGMV2ttGmmOgliKyoHfETfybUVFGfyZUAdexgbZRHkpaAGsRXEDW4yejJm2i+NfktAT/4dm3n9/F4RsGGTbAU2+xh75ArXEDl7pWKAGbjYQqDP4jbLmXgnUWeB5Dypr9mKYEU90tog1RSa+w6n4v3/fZBKqhWzI5FDbLmiyHSNsu5CwjDxi93cXKI/7DaSaivWKijK40XZROMq5aKCsMdEFDvTwWtkujCPIwJMYfDBYS6gWsmFCpNZTH8mnth1IWEbaduAokjEIpQy0ZdU/Y69HYWlTZ4nnqW/OmoKNRnrOXkEe28VxFI8gg4CEaiFbzHy3hsNI7JIucCuk2nbgCGphJLobCJBU3vokL26yXRgOcxmKKyrSoD4AEQuneCb6YPywHKMBSKgWsiEt5I32gmUPRtl2ISHZTrurpw+nOQZjETobacnOw2pFRW9UlDZ1thTxrlDW/GTIl8fwDc5Cst0COYIxACRUC9kw0bnJQWp8a9uBhGS+E7vFl0BfzMKv3hVe7Dssq6Hezd/Hcpm4zuXKirEHO4aDxvPO8YZ56zAEZyKf7WIBABzYRU1CtZAl6nsbu8UP2O9C1EgwbG8hURpXYRjW4h2vsdE2rGqLrgxOs1gqUeBkr7aiYqvRhVWlvD7ecG8tPsKFKGmzYADMASmhWsiGH2074JNtGGvbhQRkhbUrV8ZNSMFafOCd5eU33NW8k5MVFecjWbq/c+FCZcVo4z6V9C7zPvfWIxV3a8xSD4o9WA0J1UKWLOIy2y74xsTKSyFnVoZ+xYLojGcwHSvwhneaF05AnIL9ioruoZdL9DhPWZESkmfJXnvvOW++txZfoi+qhFssAIA/AadGzwVniIcwF/V+gSjyT2hXyoOm6IguaIMCobdXVdvUHlqH7WIEaYSKipP1JmMXw1wAV97rjd4A5jMF4zABW0O78t9oK6FayIqoj1QDwAosZH3pdgwV8yvxk9AQHdEJ7QxsLBkrUxV/X192/o4Bz+tKtf0R92MKOlvw9ETvRNyGTM5BKlIxMYRNfzZBWtVCFmyi6svITUagvm0XEozNBtOuic7ojI4oYznsZfJXRUULuw5Hhm7KWxnPtBKqD5DkNUET3I5MLsJkpGCMwbt/IyRUC1nwo8Y5vC4yEnfZdiHB2GYgzZpojTbojiqOtEwXKXd81rHtckRor6yYbdtlAEleAzRAX6MhW1rVQpbEQ/c3AEzENtrrJk089nFfgKlVR0d0RCdUcqwGZygrJFTHRnmvFv9QUsyy7fJh/Beyg+8Y3wIJ1cIxpNH8IoiQcoKxOMe2EwlEMG3q8miHzmiNBo6F6EOorx2XUB0rraAWqpdiJ4s4dp+Y6BjfBQnVwjGMV3zllsRvyMAOALuwH5nYBmAP9uLAt+A+7AawDZlIw04AO5CODGw/+GtiK4C92GMoLyMkVIeIv1BdFh3RCR1Rx7FX79HMV1ZUs+1yZGiJj5R+n4l5aGnb6Ww4spU9DqnYoZ2WhGohC1S7v9ugViAv1208FM53Ii3bkP8sMhXSHAnSc/zVHz/ohepCaIXO6IwmSIpETamG6oJyolbMNFJWzHI2VB/iUCs7g7ORghRMwl7lNHZDQrVwDKqhukNA1z0wqlwul1+N4ByFNFdhrsbjL+ihFqo9tMZp6IxTYWqnbiN5pOo2L6VtuxwhToSnuIu8eh+HLfJ4zdAM92I3J2IMUpTG2aVVLRzDMv6lqOgQqn/toBKqgZESqkNDLVQnY2KEQvQhlikfSFLGtssRophXVfFsNndOcouVQl5XdMUKqgyL7IZsLCocheqUsuIhh0LVBR3qZyAJuphYquUa6rucS6taBdWdtsPfyjYY1MatMyChWjgK1X112yJPqG2jdlC73GRslhO2QkJ/2kx0UG/FFbbtcqSopfh7ewfE+GOn0q8lVAtHkcFURYX6tgX+KOup7UCWcfBgdsE8qodYRBH10FDQtsuRoobi77dheyQ/xaVVLfhiuvKy/Q6h+6j6cSCHYYZFfOxxlzPqobqAbZcjhWqojmoXuLSqBV+odn8XQ5PQfVQN1dKqDotECNVqZz8BEqrVqK6skFAtJCCuj1QDQAfF0epl+DuSXWTRIxFCtfpmkRKqVThOWWH+NDcTSAe44IPdnKKoCHukGgDKeaobNY6z4GUiorI5TVRRD9V5bbscKcoofoirtk9dQc3rTEioFg5jPFSPW7ARqqUL3FWkVZ0VeWy7HCmSvRKKClObEptFOsAFH6h2fxdBUyt+qobqFFC6wEMg/kP1TqYpayK4z4tVctuv8Gh223ZYCwnVgg/UR6qTrbyHOir+fh0W2XAz4Yj/UL1dQyOvWDWKKv4+mqFaxqoFbdZxnqLCTvc3UME7XlEhXeBhEP+hWr1NLa9YVQop/l46wIUEI0V5d+MO1nyV0WoXif9QrZNDecWqoRqqo9mqVp1WRsp9JBxENZzZGqkG1EN1KjJktNo48T8DXCdUy1i1GhKqsyJDPvmEQ6iOVLe2eHhhB8Xfb8MMW64mEPE/11knVKfbdjpiqN5F0VwMp7pfviehWjjAYuVzeG2NVANAFa+6okK6wM2T37YDxtEJ1XttOx0xVLu/onnXqYbqPJ6EagGAepva5ki1ztUlVJsnn20HnMxhIhxiEiSqwyjRPA5FrQM8D2TOg3AQ1UMtCuNkq/6qtuknY4+MVhsmmu0bFVTHUQEJ1aqohupobtwqoVrQIpMTFBWtLI5UA+qhei9+seluQiChOiukA1wN1QVx0bzrdin9WkK1cJB52KSo6GDZ4xpeVUVFqmWP459ovjRVkFa1eVS3mYniXbebapMNJVQLB0lVVticVHaAdoq/l0M7TBPFl6ZiDj31We6q++onOqrLmHQ+n2yjmkcJ1cJBxiv+vhBOse2y8sfCNOyS0WqjxH+oBkoqK6RVrYZqq7q8bYc1kFAtaEFOVFS0Qj7rOzuohuo0Ga02TPzPANc5T1la1WpsU/x9FEO18lItSKgWAMzFRkWF/e5voLZXSVGRatvlOCcRWtXqoXqrbZcjxX6qzpqpaNtlDaRVLWiRqqzoYNtlAOqj1er5FFRIhFCt3oZTDT2JzVrlLVDUP57sI6Fa0EJ1pLqgAyPVgM5o9Q4ZrTaI6vGFUUQ9MEioVmGN4u/zobRtlzWQUC1ooD5S3RL5rY9UA+qhOl1Gq40SxZemKqqDLsB2pMkHYsysUvx9OXhOvIvUkLFqQYNojlQDQF3l7kjV/gNBhUQI1bWVFcQ6205HiN8Vf1/FtsNaSKgWNEhVVnSw7fJBPE/WVrtEyQQ48FE9VAMrbDsdIZYp/r6+bYe1WK/4+7yQUC0otzQLoLltl/9FtX0/XUarDZLXK6bw6zQ04s38lCsjVSM1kKyskVAdO6qt6hNsO6zEGn7Mq1iNTyjqigAa950QV+iMVBdwpvGkPlo9Gd1sOx3HlFZaFTsXc/EmgApsg9ZogyZIcubOyo58XnWqhhMJ1bGzWPH30WhV7+RUpCAFM5Xntx+gKCRUJzzRHakGgAYop9iZlCqh2iCl8KeGag2GYiiAojiVrdEGrVHQ4ZBdR7nlp/r7xGU11yoq3A7V6ZyDFKRgvPIhJEcirWpBY6KVS6Ha89rwGyWFjFabxN/Esh1IQQqAZDRia7RBJ5R2MGQ3xQhFxSLbLkeG6Yq/LwLVQ3vCIYOzkYIUTAroXDUJ1YLypLKCaGHb5SPoALVQPRPbWczBABAfBDMHPB0zMAOvIQn12Qat0RbVHKqxZsqKhbZdjgyzFH9/gnNLtRZwDMYiVXl71JwpBgnVCY7O7t/ujFQDQCfF36djEnrYdjpuCXa5VibmYz7eBlCZbdEW7VHfgXvvZGXFZqxhBQc8d58pir93Z4LrCo7BGIxV3sIlNo6DhOoER32kWjU0mqaBV4lq2yakSqg2RgVD6f6Dz/AZgPJsh/bogPoWW1OVvQpUfSH/hp623I0QaZykqGhj22Vs4jiMwRjlRWZqSKhOeFKVFa6FaqAjPjacZyFWqhtOf93BCWhl0Zbt0QknWgnYzfCDouJXCdUxMA27FBWtrPm6i5OQgrGYjcwQrnYcEnZddRrfYEOW41l8j4m80lZ1UllRje4/03RW/P1MbEvYGidTeAWrsgIf4k4DpVA9pHxswDfoj4aowMs5hKtCrk/1ttzUcB2MKGMVf18FVUP/VMvkND7GDiyFbngBM0MJ1EBVAF4ivrXG8VYs+PdvRXABbkGTBBxLymQ5xcMEzsAPzpXTP1TdXHA4znQuF+bZxffwFpb++/dqeAvdAy6HNbRzJOEJ6IyuOC2keRS/UXWMtAg2OXDCu+ucQrUZ4BfhsxDLdBd/xo/4wcI2scnYgQIemGC2g1dn+R+d+RNt+xa2zVGWvOhkGdVVFNzpZC5M2g4+zbJZ/McV3BFoWWSyqMVsFuZ5/IibjNduOksoi8Yl3D2nan/RU5S8HlKZLueb7MYC1oqmPgkmWgf4dDbFB1n+Twq6ojGHMjOBuhlSlRXujVQDwGnG8x1ltvNJVsf92JDF/w1BcywM8I73vJMs5nQXvsblKI/O/JT7DD7HeZT3ngdGWSyXaPAtVKuso3GfVvA5NmU13IRRAa2Q1uHAkcMJFKrJ59gqx5l6c3ABGiFxwnWq4u9Lw+aLOHtUR6tnY2uC1PA2Ps4a+L8chjkWoTk+DrA0GtnOMtIxBpeiKu7n38ZqWf2TVUJ1bnym+PtaaGCw+3sD32RbVse9ymu9g+fglETb3R5h2XaeG/OPT+RQZsZ9h1UGSytKznO0TDYzj6JkmKM5CbZUHo65o/ZWpgVUIgNtZ/swS+aN3GCkphdpiJYkwD2nb7OUJbcZKs8M/sAeTLZdIP9aEe5MpA7wJTxVYVer+eiNUzAmzlte8xWnlLna/Q2U9JoqKlJtu2yYPXyGNfEotsb4+9dxRkA9DV0dOggzHW/hJIwz8BzX89RPdFJtNSYW7ykrzCx/G8cTcSZGIN12gfzLHSjsAQnSAT6MzZX34Z2BzujKWXEcrlOVFa6GavUucPW8R4dMDmYd3B9zmD7Az2iBZQHc7ZW9xrYL4AjWoDuGG3iKz1FWfG67KBxmOz9RVJQwsv3JeHZzbMf26rjz4J8SIFS/xHOwXUv5M07GpfwrTsN1quLvK6KeOw2mo1CdWDYbW+K0VkeyMa7CPxrKJWiBsQGUSl/bRXAU+3BpIB8hR6IeqhdjUpzec/55Q3nP7B7IG/jbaBevwH7bRXEExTAMh04siPNQncFbeKePZeqZ+BR1cT3Xxd1Dpr77t7ttaqA1Cir9PhOquY8CM3gae2Cetn4zuuNT33d6XzyIQraL4gh24K7A02ymcabTG7YLwlF28WVlTS8DfryK5baL4gjaYSYa/vtBEteheid7BfB4pOFd1MJ93B5X4Vp992/VTuYwKeCpbjGYatvlgFnJ69lceb+no9mPy/Csz/s8yXvMW45nUNN2kRzGcCwJ+On1vPOUNd9gbVy9Q4Li9SwXEuZESZwVuBeb+JztgjiMdvgZ471ah/UcxHGoXs32ynv1ZscuPItaeNboas1wSVX8vYcutl3OkUReW72Z97EO3g1kk0PiPvT3vVyxjHev9zsm4WaUtV04B3OldlRqLFylrNiPV20XhINs4DPKmosN7Ev3XMAHV+pSDndgAcZ7XY7OofW56IZsBisaSLYuR8TJkotzFAUNHc/3NEVBUgi7WoVhe/mcxt5Zudml3BdQ6aRzIvuymO1iYjsDtd1EWVKY6+PirgvSbtYQ/Rp4KW5ncdsFwSR25pfZPnm2vTNkowy+HDpzQeQft0yWUZS4vhlnOkspSr51PEex2GieYCjpTtwWYPns5ne8huUsFlUytwRe369qiB6Ig7suSJvNvMqi+gbKUKcug7MktuYL/CfHfFmvKhP2juEF7HnZL9AXWfg2W1ni/g7pqv0E/Z3PUc62hD2MXqBhLq8OdcvgdD7MZpYK7PPA63sj8yuLCnF5xO+7IC1N6254NvASzGAtS0WQh635ClfFkCPrlRW0pbNfKBeqwMER3tFM9RuyIHc7n9c3FAWNnM9R9raFt2m0RlStJpcaKaNlfJEdmS/kQrvUQF56O+JHVO1pDVF+rgm8BH+0kPnCPJ+fcGvMebFeWcHaPl4Q4uWacXJEHzvVFmjXCORzsaLAM7TppGnL4BCWD+lipQze4Tv5A/sb68DPKi9BbZ76n03QEHn8JZL3XfC2ROu0qqsc+eTStSQ25T0czT2K+bBeXUHaDnYJ+ZIerzTwjWfa1Hf/fiESeayiKPg6Erk60iayaagXLMKRhktpJT/gRVke0Rm0jTGQk+YaovrcG8E7L2jLYDst4ZzAy26TxkCGjlXl1fxMe2Kh9QoLzjazlZULF+bDEXv0ZitL5kUif1coCvpFIlf/2Spernymr3/Lx6EhlFMGZ/AZdmZBgxe53EA+PtaSPRixO8+EDdCSdTNQcqpDZ6pWlr34Ohf79NyLl4XCq9gVC6xdvQ5ewhnObrt5JAv5f/hWSVER/8CLQO4+5uVKv2+IuRHI1QH28kU8jV1Wrp2Mwbg0pJLay18wBimYgYzA0y6ENf9u0xgU+1kDq5VVefErmkTm3jPBTLbWOgF6NDoHXm6tOMVADj3URSu0QSvUDcZj299WwdgyVrftArv7/m4yben8hp002mVXOp6vQ7ZaMW8eF0UkZ9+whlUHkvhuyCW1g6N5L5sF3ItgIhdPacnqcUdE7j0Ttpk1tYQmpoKuDPgeS2Yz9uOXga+gt15pQdg8I9udqFte9lOY0ReubeEr2p8znzqap2OtvrKkPh92/BPrd8OLsmIzjy9ZKaW1/JJ9WTWg5FoayMNW5RX9B+wyp+86k5bJnprSLw2U2csBJVSMnfmwxnSxWM16tfm3CQZ2a9K38nyfGY49hNN5pdZcywOWJ0IzpXUX6jXm4062sHfzIR81F7Q9ZbGE/uA77M2SvhMysX3RE5rCgQ7ecWHYM5rCk40sj23tM4GavJzvcL7xpbvWq82v/cBCtl04xppyoiMP4T5+yc4+E2njSF5iMX/rI+vzXmdqjiBSWNe2C0fZvZZLJ51T+QQ7+pixe7uBHOzQnL9eICGXbaVqb1D1s4HSWsUkzbprzXv4fYjNGOsV588+DmEjCB3zeHlMO9CYtFV8kMcFkFDwewOZs10BtEHr8gHOtp7nv3i2bReytNuc2PhnN3/mPWym8ZotwZ0ObUt5HFc4UJph2h/aewJ0NFJSz2vJvrSw5sd61fmxAZpfROFYET5tbRHXBF4Q2EeMix3D2dvpASVUn0/wT0s538cnDfYV5fGp7+vQAM+lGqK3DXifxhM1pU0SanrZBtbRlHqcaqScGmqIWlupMeuVp28vBTJz70neZnDH8Fr8PuRq3cX32CjABGtH7EXyUoCJeWzFAaGfwDXaYLd3NX7HMb4/Ay43sO+XnunsFtbASL/AWG1p18BOMXPddrOltvgcI2U0VUtmZ+sk69Wna3odF0fbgYkyi32P5+ZknULbQOQP3qu8D1ludlfEXiMLAk8yP3tzdEjdvqt5ubHE87LfwRbcRBb1mdZZzmz6o9OaHWfE94u0pZc41E9hztLZS1tciH8ZKaHrNUQ1mC6hOnbTnXN5pD39b5Fn8sNAxnWztry8zcARfIdbJkfxTCPDAamRe4lUM5JsPb7EjUbLYj9f8B1Cs7cOR8x9Hs8iPtM705G24GsaovOMeL7ex+aoUds3T8d0zqU+ZM8YKZ89WmuHXrVUV9YrUMceDiSZJ44q8q3sZ7ArvCzfNfTtvJmvaI8A5WalnenqjN10vpRjs/y81MCh9gdsvPZoZ+5Wnh8e0yvgv2Xd04lgvZWFlUXJhiZzfeZDfLcDZWnS/DSuGnC/kdLR2RS2BLdLqI7VHgokmUezLPDZbGPQ9SacEHA1T2dfo4vV+kTwBfKN4Qs045CAXx0b2dfY3t5JvDyb3oDffK9S7uFEN/g1GqIHDPndy4fYlE8u2GM+xB7HGyoZnZFze8sVrVeiqt0VSDIPZVvgmRzMcsbc93gJVwZS2Wv4DGsbL+6vIvj62BbCSciV+GRAGwem83WDW/g047QcvJzK4j7TP9dQe0fFpmmIyhjaU2o9K/iQP2S9LM3Yg77kprY1nqUhymtxcZ31alSxTPYPJKH/5VLcW3iL7yUt2VthPuHrRZHOH3lOKOvJi3F3JF8e3UK5TAH25e8+y2cKmxjzrwQH5DoBZprvz4TeDgyRNNMQDTbkdaqvN8c91ssyePMXqCsZW4FxtYboUov1Y70iY7dM+pmY8J/dF1NxzzR6pGYNzQn/y/kwVU9l1reoHNNxtL0b2qXy8CLt7VI28lpj+wJ4vDTGc9Sna+5g/Z9daGlGrL/6bmLM53t8ye+M6DOXnT3gS57EFEPlsVlr4NDUTJVYzHpVxmoZ7BtIQrFP38jkB0YPvG+nVPH7+RW7hbzly5iIvjbWGewTOdY89lDejjSD7wa+rO4/O4FjFfyZ6duTiy0H611afQNTDPm838fqYRDsFzdLt9J5i88k7jBWEs9piNpbrRfr1RmbZVKnu8J/1W/mTQZf+x4v4B8xeLSYdxscP8/OTBw4F5a1D/2S7RWWtc3gqcb8KMSnlGdmz2YZn1e9zHKw1gkJ5joz1/g86e88J6br+bWdvrfGrW/slKr91FnS+Z2E6twskzcFktBtWkU9gy0MZi4fb8thve4ufsh2xmYH52TJSi0z12ywlct2iCFcb+HNBj/+ztLcKmKu70/BPlbbggs1npG8Bnfpn+xzamMnbovw00cQq6gzg+Bwy29wJ/4PNUS1Lfd2WK/SWOzuQJK5VXvHqQwO9N3uyMlK8Nljvh8zOYFXG9wSI2fLx48i/arIYAdLl84pXGdyiPZhBblbNV+b2M737dlVVl9lOossHzXor98NbptE+iCP6T77FUAze7UfsEzq7Pz9huX6sF6pudsjgSRzk8+tITfxBqMjxVX4xr/dXn/yUdayWORVAl//Hb5t4knWLp51uJ7LtsaumI/3cZfPOlvoe7++aywG6480ROWNdbAS/rfiKWNsPbFpGxFAE+MKg3nXOSq3lJET2VTMerXmZi8Eksz1gezh/BubG81sZT7CRwwu34nFknh95DvfDtg2nmXx8keG6+28w+BOeKcFdPrZIt9toZus3Tm7taaWmWu5EfvZ0WcSBTgwck/ift4bQJOmpdHR+nYaovut14T1qs3Z3gpknPbawA5bMDtz17514kzrt2SQ9qHBDufc7VC4/pyVjF2jEr8IsMaW+Pb0QWv3z40aIrPjj5sC2PD3skgdkvlXIEtcj+M/BvP8i4Yor1GPYjPrlZuTDQmky/nqgB/Hjezr9DnZutaRP1u/HYO3XXyBlS060IGnGUs7L+8O/EW+zPe6/Vcs3UW/asnM7se3LICVG/Ui8/k8OJC5Nfk42Wh+dfrabG59csisO5C9DQ1kpuwVRr6bp/Fk28UToOXlBcZWmbpg6fyO51mbomfKOh5xVlZw9ger+krA4xBL95LO7IRTDPs6x/fmrWAy73V++dY2XhZIQh4/NJrThVrNLJtbnxwy6w5kZz8EspPz5cbWe2bwbd/7PLlgVfgIVztwI5q3fRzN/lan6wVnFfmpwTr7U2vV6X+WzGFW7qgXtWSmj3n9OZA3WUPDbU1/9k1gPVem+2R0PihaO1Hy1h3I2lJYIIBkLjG8McMGg1tDmreivIJj4mZnpNhtAR9nY9tO+LC8vMP4QXx/+mxZF7Ryzvk6rZ3xzzDu6WeBvCWCO+onWPszwOmbsW36rG9/a90hQc4G0TfrDmRl030ffA+CF4Wyg9JU30v9w7eSvJzfRvQojqDsDz7HU61sLuPP2nNeKPX2u892UjHOsHB/9dIQeQa32jhk7wd0pxXmfdzg0HO7hXcxf2DJXRnY9N/s7D4NUWUHTo8jnAzVfwQyazecQE0Q6XzT98m/YVlhXsaRjtx6LthyPsqatp2I2SrwY+Mvs/9sia8DHcFyXBL6ffa9lszkGt5D9mZgn4VFeG+MR7GYtR18OtDVMGcbP6Ntn1Zkec6BsiYcDNUbWDeAZMI+mm8T+4V6RIS6JbE13zHecRpNm86+gfTjmLRk9uPWkGvPb7CuzL9D9jhNy+O8XB6Cn68EmFg+9uboED/bjradfMX3hjlH2pkhTJz7TENUKIdtn8M16w4cabt9nkpzwOycoTsjEN9NWH0+kyBTx/RtG4ews7Md4m05x0r9Lfb5Qq7NtSH7rbcJcThHT74U8P1Vj49wcej3xXLeE3gv4kWhvLE7aIjsbepztFl34HDL8H0WS3jVnrX/7xrdK1zdivL6yKzKdMEW8w7nBjPKc4jF9tMcn3d0i5DnRMzRkhXlllC8DK4b/D87ifdwjPJpajq2j8PZ28Cue+bW6Rxuf2qUvRfQPoBBmHUHDrf7A0jEXqA+YJt4oyNd4U34tnR4a9huvu/Mqvlk9g8piGRvs3wuSuwd8oeG3gDaUyH5+IGht0NhduT9/M7Qrlrr+BWvNvQRG9bO8c9qiHo49P70CFcYygvh15ve+BTJnu2czOYtmGzx+gVwFvqis/VyiDIz+C4+xm6rPnTEq2joQC1OY2fs8KG/H0+FmIsH+LSGqjz+RoFQvPyCfbDfYPolcAIaoBaqoBqqojzya+ZqO//GMizDEkzFYmPePohH4YVS7qdymrLmJ5zuwPN3AGdC9TS2x16faVyEjxwI1ABAfoh7sc7ClWvjVlyOEk6UQtTZxEF4G39YuXZ1vIhznanFcezh6+kciGtCy8t0nqKlew/XhuRjCs/19emjRhGURlmUQBKKAyiMfMiDYsf8aifSsAv7sRu7sRGbsNHo58QB8uIdXBVSma9gdeWGYH3MD+kzIiZsN+sP2Gaf+yOB9ru+j7at7G/wNKWsrCO/T8AtTcxaBn9k55AvWoiPOrfqfZjW5hGHLG+IW6JkaG7lWTfEZ2d6AHuDR92KckSI9/gHGqJ3nHoGrTtwwC7ynYSdWd+52WJ2CeVC+dibUx3Mf7zYbPYNZP+8WOxM/uVkTX7la5S1XIg7bXXSFH4bYrkvC2RRanStakhb+RyyfhoiM3vs61qS7VY9ALzLz32mcJETY9THUtf7CV+gqtFrlMWDWI4vvVMdzH+80Mh7x1uGe1DC8HUaYiyGe9WdrMnzvAHQd2w9LsD+UEbbyL81lX7fQioc701BpxCv5xYdMQ0nhnqX79PQ/F+YDuaO7W8FYoPvs2dc6/o+2nbzMRY2knRVvsE9Tuc9vmw7X2Z1Q4mX5OuO38fEM77kN4aSux81hV7oB2Kk8SbbFWrBPN4b2k6S/9mnWjKXjgW27gDR32cCrgfqA7aSlwS8prIG3w1lNaXYkZbGzwNfzJXE653a2zl7u92XfHgIeWynKbzMSvm/HPJ8FttWhqOslPMurQbhCQ5twmzdgV0+xwCjEagP2C88JaCkanNQhPIdjzaGpweWWOsIbVOTwXN9yCsZXyX+s6awCFdZqoPUQM48iIa15gprd/rNWrIXnXkyrTvwgy/5hRELWBkc7HNfZfAEfmyhA0nsWJvFi323iSqFegRHELabp/qQ9zWcV13fnrZYB6uc3ZI4SCvAZ6y+t/7QelaLOrMls3UH/Ix+RS1QH7AdvF+7J6EOP5Iw7ZT9yZtZSFNcmI9wZwRrc52P08jyGtpP64B9qymsFcJhETlZGh8O5Exrd+0kzrJ+p1+qJbvSut8HzLoDOtu9HbBoBuoD9gfPVx65rsXBEqadtPV8SPk4wDy8xpnvdXVbzGLa4jHGcp3BRprSYQ7UxBhWsu2CIUvmvU7Mqlmo9TnkcYoDvjsQqr/UFEY5UB+wKWwT849r8P3I5ze+bSdfYdWYf96VcyNem59rCvNyh7Gcf6wp7OpIXaznObZdMGDtHbrXe2rJTnFiYynrDqzTmhcd/UB9wL7jCbn+qAE/ipPcxrvt54dsmOvPGlqaAxu06U2R7GUs73s0l9Elc75D9fEly9p2IUCraPVUuGPtV03hQAfyYN0BIveX27HmRpdEEJbGd3KYaNaC3zt1q4vlZpn8kdkvF6rAgXEyiLFH87ytFGO51531codj9bGe/vdudMHy8T6DPSi6prdJcDnr59s5Eaof1BC50SURlO3kYyx61D/mYS+Oi6M8JpZN4TnHjIsV5sORnESWtQ3Qkp1g7MNzveZGSi68hI+1sTzRtgu+LImXcJmD5Ur8prm7RX/rubFedMQKrUn0b1svumBtPe//N1yX4b38O87yl3i2iNcw/8G/5OE11tbtmrC9rKwlHGKsDG7QFL7vaK2k8TXlqYpumMdzQt7fW83O05IlWx9xd+IQzHP5rbKmFJagjJN7JeuzmR/hd/RAJ+0zZgW3WM1X8A5a4nknzp0Ojld4u4aqDhYij5FyWMSTkK6ha4rfkORszezkG3gWW2y7oURnPI2TnS1RAFjKBlr3SieMsZovJ0J1CrtoqK7Fe07fEoIAAHtZIM7u0608Hps0dB/hMkMl0Z2jNFQeJqCN43WzlW/gTay27UYM5MUFuB3NHC9PALiOA7V0Q3G+xdw5EaqB5vxNWZOESWgZgRtDEOKLe/i8hqo2Fho6/e5ndtXSXY4PI/H+yOAIvIYU227kQHFcgbtQJRKlCfzD2tiroauGhShkLY9OHIIJPKihycQtyHDjS0MQEoZ/OEBL94ihQJ3Ou7R0RfCMCXcMkMc7yxvtTcNlyGfblSxoirewGq96UQnUQGXvFi3dcjxr0WtHWtXAqZymoXoDN0XmBhGEeOByfqyhMjdOrTduDjyDeyP37ljPL/Apptp24yDH4VJcEclZGFtYS2sOQAEsRA1L+XUmVI/gGRqqYliMChG8VQQhmsxhU2Rq6D7DRUae0/Wsi60aulpYENnJm7/zU3yKJRY9KIru6IOuhvpJwuB53qOlOwffJHqoBtpykobqKnwQ2dtFEKLG6RytoaqPeYZmWutOERqOMyP+3pjO7zEKM7U+nPSpgjNxNjpE9jPnEPvZEEu1lCPRzUreHQrV49lBJwOYiNYRv20EIRqMYnct3Re4wMgzOpOnaIWqzhgdJ++M9fwZIzEaGwxfpxBaoAPOQBN4cVJyw3i2lu4EzEFeC2XgUKgGevF7DdWJmBXhjhhBiArpbIL5GrrmmGrkBU+2x0QNXV7MRb24emNkci6mYhqmYVHAreySaI12aIOTrYQns+gt8QNexB2JHqr/YH3s19C9in5xdxsJgmvoTuAag05Gns8hvFJLdydeiNv3xQ5OxzQsxlIs025p50M9nIiGaIgTUS1uSwpYxEZI09AVxRILM6ScCtVAP76uoSqGRagYx7eUINhnE+tgs4auF7418mzuYF2s0dCVxxIUT4i3xVb+jmVYgQ3YiI3YiA3YAmA7Mv79RVEURmGUQGGUQlVURmVUQRVUjMMWdNboxRvgSgxK9FC9mbW1XgdR2cxAEKJKX76noUrGHNQ38mzey+e0dANxjbwrAGTQzOK5KLGZdbT23fMwBaeGXHqObIFyiFLefVq6j5Hq1jeHIMQVs/iBlu4GQ4H6T76qpWuGq0y4E0EkUAOlvEe1dMRtYMgRx7FWNbCP9fGnhk4mlwmCKXQncBXD7yhr5Kk8n19rqDxMls2IhcNIZ1PM01Ka29E+axxrVQP5vZe0dPPxmm3XBSFO+VwrUAP3GwrUk/mNlq6PBGrhCJK9t6B3S9yHXaG2c51rVQNAD47UUBXFIlSSB1EQAmYPT8ByDV0lLDVyvEEmT8V0DV1RLJbpp8IxXM1BWroH8ViId5NzrWoAeA35NVQ7cLdtxwUhDnlKK1ADTxs6h2iwVqAG/k8CtZAFz6OMlu4F/B1iS9fJVrX+7E5TKzgFIVFZwROwW0PXGDOMbCa6k3W0FmlFeddvwSzv8not3QX4IrQ7yslWNfAgKmnpbkWam98eghBRbtcK1MDzhnb9fkYrUAOvSqAWsuFatNTSfYkJocUbR0N1EU+vVb0QL9t2XRDiiHGaE7jOQGcjgXEF9aaddscZEqiFbEjy3kSylvJ2ZIYUrB0N1cAlXnst3aNYLu1qQQiEDN6mpcuHFw159H/Yo6FKxvOG/BHig8bezVq6mdCbkqaOs6EaGKD1nbNbJpcJQkC8hblauttQ10gbdgE/1dJdiwbSphZy5HHNQdeHQlq05XCoPtHTG+ofipHSrhYE32zmI1q68njAkEcPHrZ/dewUwcOG/BHih6LeC1q61SENujocqoHHUVZL1x/7JFgLgk/+T2t/ZOB5Q8dhTOd3Wrp7cZy0qYVcucjTO439WawLId44HapLek9o6ZZBb+qJIAiHWKB1PAfQEpcZ8ugB6LwRK0Hv6E4h8XgVBTRUO6EXp9RwdF31ITLZEtM0dAWxENXlS1oQtOnIVA1VEqaguZEnbyLbaekG4wp5Ewgx8hAf11DlxQLUNnyXOd2qBpK8N7Rc3IM7bbsuCBFmqFagBq4xFKgBvTP3GuFyM+4Iccn9qKWhSsP/jHvmeKsaAK7kEC3dD7KSUhC02MP6+FtDVxJLDB3Q8QPP0tKNQld5CwgKjGQPDZWHX9DC6J3meKsaAJ5FcS1df+x1/ztEEBzkOa1ADTxiKFADOt2SQDtrgXojr2N1vsKd8g5SZB/f41yLpdbdO1dDRdxj2K8IhOry3kNauj9k2wNB0OAf6j059XGjIY/GUWfGCvCYIX9yJpMfsj4GYjluRyX05xoJ1zGyn+/yePRFE/RhGLOqs+YVFNFQTcTPZj1mBCyNDbWEBfkHbfsuJhY1u1BT+JOxp627lqy7lad/Blsc9U/5eTmXypsoF9vHd1j5sH8owWe411KpPacla2nUW+sVFJulaArPkgdETEzJJtDTEp5v7Fmbq+WRx19Df/o3sR/zZPlfSTyT0+VtlI0dHaYPWW1+aaXM0thIS2juYzUyoZo4T1M4XB4PMbGYLZ2NtYQF+bexJ+1yLVmvkJ/8DL7FUjn+xOOZnCjvo6NsLwdkGaYPWVcutFBmeh+sJtvV1isqVvuLBbWEtax1ooiJRc8GaAofMfaULWdeLeGYUJ/7qWwW409bcxgz5Z0EIvcwfcCSeSs3hV5iV2rJRhnzMwLTyg5Q3dM7huMP6O3sKgiJx2bq7ZZdC/ca8+l9pGmoTkBHYx4dzUZex1aYEeOvJ6MnTsJHTEvwyWbb+Bxr4hb8k+sv0/E66mAA00MtsVu1VI8Y8ycC66oPobvWsyAWoZqsrRSEXOmruZnocJxp6Akjj8efGroTMRdeCE99Jt/F/7BZQ1kNd+AaFE7IN9M/fBXvYruiqgFewukhlddKdtC674DJaGXEx8i0qoGC3rNauj3GV7wJQjwwk+9r6c42FqiBJZovzPn4wJRLh/Erm+NGrUANLEd/VMfDFhcl2WEmr2AtvKAcqIEF6IqeXBZCeekHauBNQz5FqFUN6O5LDPwU2teYIEQTshWmaugKYgFqGHu6UthFU1kIU9HQ4FO/kffjA2T6Tic/LsZtaJQA76c0foPXMdlnKvlwKx40dHbbAfwEaqAkNid6qxoABiBZS3c7En1kSBByZpBWoAb+ZzBQA61QSlO5G+dju6GnPpNvsy4GBhCogX0YjMboxGHMjON31Ho+yRq4yHegBvbjRdTBu8wwVFr+AjVQ2Yxb0ZkBfshu0hS+JHMuxcSytW2soCU8nnsMP1m6c9JBsBv3G/Au9tneqmX5GrfF3Xsqk2N5CfMHnnAjphooqxWs6TOJzwzVYMQ6wIEtrIONGrqiWIIKCdDJ5BYZ3Iwd2I9dAHZhP4BtyEQGtqP4wQ6dIsgLACiAgiiC4iiOglJLFriNr2rpRqC74frK4MmYra3ug8GBTi8Lqts7O4rgUtyEk+LkGVjLIRiI342lfxGeQ5UAy8pvixo4HT8ZqrvIhWrgTd6spbsSg+LkAXCRLfwbf2M5NmAzNmMLNmEztmCbRkr5UBzFURwlURylURlVURmVUVVCuEEWsrHWkqjzMTSEWpnP5tijrb4PTwfkYwbfwYOak8jUaI2bcB7yR/iO38+f8QF+0LqrVCiM+3EnCgRSUv4DdQnMNDYcFMFQncFmmKOTVYxH2wjf/K6xivOwCH/jLyzH3xrzOVUpg8qogpqoj/qoj1JSkwHSieM0VIWwMKRlkG/Tz0EgL+DOALxMZX/MDSOzBymHq3EV6kTuPs/keHyGr0P5pDlATbyEs32Xk/9A7eEb9DJXX7ZHMnRsouYuxU2ZHncjQWHbNo7k//E0lrbsSGWey2c5jrukRn3bZ5rCZ0Ms+96+5K/59HQ5/V1f31rzvQiNX//K21jRyqW7cpGvUvI/Rg3eYbSeItiqBoAL+aWW7h30jdxXqhuQs/AjfsR0ZNh25Qjy41R0QiecinxSs1rsZn0s19DVx2zkDa3Md7IV5mmrPbyJGzR93cPn8Bx2h5XRLCiEc9EHHUIsbXWW8lN8imUWPciLfngIxbTKyH+LGuiCEUg2WUO2v8P0bDkLaQnLWNhLNuq2nV/zGs35weFZIfbku1wttats/6cpHBtyWf/pqyfH43ta/g5lNdsVdNBK8EJ+zI3O3eG7OZCn2HbioB3HwRr7q//OGr6vXJebDdeM7bLVtv9pCm9y7lZ313bwI3ZjPttuKJjHk/mYz66wxLKVmh+9l1go4zGaB3ccME+5G3wWO9qunmMsD1vwEc5z5A5fzvusD4UdbS04Tal0FgTQZV8qhPPIbZertm1neS1hEn9z5DZ32dI5kX1ZxLYb2lafD3OJ1HMMdrGWrCj/sVK6QzRnqRyyp2L2ehWvZpLtysnBunGx5fv7L/ZhsvVyyMqSeA3XxVg6M1jG9/UKhnK0qe1S9WGvaQpbyRF0Odpv7Kf5GeSateA73Cp1nYNN1Qx99jYUespnAg/E4PkuPsrCtqsmVyvC76zVwjr2c7y3rQRfi2ES8WSW8H2lZA4PpR5sl6gP28/jNaUfyes7S9vLIc6MOgVlhXg5x8nHWZaWydZawgZG9gCL1W72mcDVOXqfwSExnKDshuUL+UzuQ/a9c53eWVtjTsqxfEYH8EHmcUhIdWC7NH3Z55rC8tLWOsZW82GWte2EMavNZ7hF6vwo+1RL5nGc1ZJM57k+k+jK7dnkYIyhLUNNWQUL08xGOdrtnZV5vIJrsymhIYFsdvpCaOVvuyx9WSZbakrvktf2YTaW5zKPbSeMWzH2k/Hrw2yP5tzmK6yX4R628ZlEY644JhfT2MV2xjTs5pBrY58zM+JjtRJ8lWlHlVIabw8k7XtDLH3b5ejTxmsKk52ZQ2nbRrOFbRdCtCSeySlS8yCIJ7RkxZxYELeZ9X0mUYYjDsvHQp7nc8KaLcvLv0Otj/es51jHGh0x8WsmmwSS6tWhDqzZLkPfdoam8DQHXjh2LZPD4m5kOjZrzWEJP3q9lsW0hK87Um7LWclnEh7v4S4S03hZpPuU/hdqjTS1nl9d68aPOZGfsmdAtd0r5L0vI7pb2X8s4klI11J+jXMd3v3HLJn8EY9ihm03LHIq/oezErb+gWv4gYaqIWaa3ZFJgYXsgA0+0zgOlSL/FByH5aHt1DeLTW1n1xG6YFhAh4TESpLtLPvlBK+PpvI27Ir6d4omw3giekb+FeWPX9ETHTgxQe+AORyioUrCO84EaqC+l4LSPtNYGwdPwVp8G9q13redWUdoi29DDtRxEKqBR1FQS7cSz9l23QLT2YFnY5FtN5xgPNqhG+clYLi+W2sn96vQ0plADQAneaNQ3LYTDjAopOvs5ae2s+oEHTEKhUN/EiLfAQ4A9/MZLV0BLEBNp14+ZvmHj2MgMm274RhJuBTPokIC3QdjeZqGqhSWoIxzpfQLu2KnbSeOoSAuRlmsxQIsDOGgj3xYj+Ih1Mz37GX+Is7TDiMsBOo4CdVbWQNbtZRn4zvnXj5m2Mqn8Rr22nbDUYrgvsAOqHeflpyqoXL1VLpUnmH13KujSUIfPIYqB8sqk79jEsZjvNbpZbHyKS4OoW768CNDKZ+A03ASTkBp5McebMA8zMQorDWfJWXaYgSK2HkOrE/MC8Qe1Jb+6MiMVrP2JcvZdsF5q5kg98JXWrJmzHC2dH4KZDOLYKwH52ZTTn/xHZ5taMPSC0Kom/0saSDZBnwuizXuBJHBX3kTi1uv0cOtdbab55i3uGhVA9tYXbNdfTzmI7+TrYWg+JM34SfbTkSEM/E6qsf13ZDBk7BQWZWEX3Cqw+UynOdjv20ncAqeRcdcSmkfx+NHfIcVgV65KDYYf4v9xG6BplcGF6MPTs7F6938CC/gd7NZi5GWGKV5HnYgWP9QCcge0pY+42xrwb/t4xMsaNuJSFlhvhDyeslwbaCW7EbnS+Qry9td1uLnCmv1M/kr72HNAK8/wngN9Q0wsSYczL0xe5zOz1jXau2C4KmWt6O2nf/AbIt2V0kRSwf6mbeJbGDbhUhaY86M0ztiD6tqyMpyUwTK4ytrZz0V54vcp1VCM3gnKwTiw22GayiTxwWSUB6ey/EavqbxnQDOlda3NtbPjbB68WDtXm3pJRF4EanaLt7s5FaJ+VmSpVjzoJXW3DPLvJePWT09ypS9oCX7ICIlMdzCmHUSr4v5bOSsLZ0jeQkL+fTjRMN1NCeARIrzTv7lw89dfCqAQyt17HTusv4MxMlYNQCsZk3s01J6SEU7h0fi1JnOy7HY4vVLoCqqoQbKozTKoDRKozQKomg2G2js4xZsxEaswwZsxEasxzr8hVWWl5U1xSeoF1d3xR5Wx3plVStMgheRcviZ54Q6G7wdXkGTQMpmOz/EGz6eWQ+rjC44fIF3+9LXQH9cjaK+PdzMp/G65ntel3PwmQvzmWx/KwRpV2tLGxxz9kp0LY2PMW/ol83D2jyXD/JLzgmoq2gvF/FHvsb+PIt1mWShKAvxzbjaK3yAVr1GazBgHIuEdKmq/CLgkslkCntp3+kfGa2n032IW/OrQOd//M5eIdUxCF7mSGyw7kCQtsCH+DUnqsO/LdM+GFTPjuflfIPTudtw+W3neL7Ii3h8yAV6Rrbn3UbNMllLQ3Zr5HL/G0sZv0gh3ssdhkpmPntrDV2ZPJx0j+bk1CSeyclG/BrLk4zXMghe78wiResOBGv6YaqkhUPag7f3QmtTnMS7+L3PUTo928JveW1Ak3FiseM4Lg7uDOI3rbzbnkyjl1OTwdrjRdmsBA7OpmjMZ69k0KefNUTFeReXG/Qpja8b/yi7x6FeNesOBGtva0srcY8zlaJne3htCJcpzd58x/irKhabz2fYOpSpc3n4sDPf1vo2TUP0VERzPdvYlj/Njjj52Jz10hAtNObZ3cqSTqFsFrKRNxtcpPe4U3e/dQeCrjrdV7cr5/Dq2u9sZPgSx/EmjnNuzfEqvstuIZw33I0bHMu5qqWxtLKoUWQ/URb4Ps/6WCvPgaGVx/caojeM+XaysiS8AcV57GIg2STnhkStOxCsZWou/ol6m3qY0UUM5XgLU51+af/Dp1nP8EWqcZbDJRCLXach+iyyeV7O+gEml493cVuIZbFbY/lWb0P+bdH4FJ4X6n0zPOAtUgpwqHP3vXUHgrVxmsIot6nT+bCx+dFJ7MwvNbd3CN+ms59GyzF2K8API1ISWdsUDVFtR+a/6thmtgsoqU6cH3opnKksKWdoZFW9hV829DHe/XyHZQNKrJTWJi2mzboDwdplWrIKxucvm7PNRrp/QLAyHzY6LcSM7eanbGsseY8PON27kJvpDJK8F+H87uWFvhOpzCFWSuAdDZGZ0erblCWm2vc522beG8COdTW4yMk73roDQdpWzT1/otum/sNQt28zfhrh1hQxlecb62no5cDORbr2ioaoUoQ/ZIlM3uVDXpAPW8v9Ko15N28Z8VV9WZS5UfPcbAl7+0rgFGcXZ1p3IEh7U0sW3XHqKQbmuXrszGERLY8j7U/2M3TkoLuPc262SWt97MsRze0he1pzsul5/NtqzpsqSy404O8GjY/eBVbL7SeqT4M7YGdxp7P3unUHgrRmWrKotqm/YIGAk0zihQYXfNiwDXzUyLIdVzvJcrfrNURlLJ7SG4wNUd6/rznHWM/zfcqS4wz4rH6+eXnrq5Ez+Q1PVJbd6Nz6lsPNugPB2VwtWVTHqZ8KeEWxx16cE8mSyM128UkDB9SX4qRIltYSrYEBt1aY6tgYhQmHJ/Br68HmgM/qosWB+32zssRE217dMvgp68T882Tn+46sOxCc3aolG+B4BWVl6bwm4CS78rcIlkPstpG3B37qUiGOjGSZqc8sBotH4hjMnG0FY+l1q8J3nJmlsVdjAOedwH0/QVliZsRcxzL4ZUxbEZfmaGd8zs6sOxCU7dHaZK5yBMep9/H8QBOszeGRKwMdW8G+AW+Vko+fR7DkxmrJ7o9gTo+2Hbk8OeX4Cvc6lc+uypJLA/Z/jUbvnVuDQ/v4Zi673zezPCchNrPuQFD2mZYsem3q3ewRYHLF+WJcnsucnc1h90ATzGOgFWPe1KcrgcW4JYI5PdaGZLNKpBZfcXBKkfr54tUCzsOnypIKzpUikcFh7Jzlf3ns59jnWXZm3YGgrIOGqHJEKuk/28GOgSXm8Rorx23YtuGsFmByXgSnJep91j4WuXxmbXOP2YK3Hb93dLX8HA1RsHsh9FWWXOxkSRLEVF5wVL9aRf7orLdHm3UHgrFFWpOsotam3hLgAZc1IjA6Y8p28eEAT/T2+GrESjJdazV+aWPHPoZtaXyNJQmCZdjX6VkamTxOWfRJoPmprSxxu5/pLz58cLJZPt4dqZUN1h0IxvpriKI293s9GweUVB7eEeFtPIKxmdprL4+16AXrD7VkL0YslznZTo7gDGcmkGVv6vsv3hRgnlZoiJY4X6bEMv4QuR5Fj4g+e1gJW5RVA3CzZ9vz2NnMjpgbSEoN8D5OjVDOTZHBAXgQOwJJy8OruDVCZZrBE7BMWVURfyNvhHIZDwzhlYqKRpgdWB19yCsUFRWxSu4QIyTZdiAIvtAI1BVxrW23FdjBHoEEag+3YLoEagBAHq+/twCnB5IW0R9DIvTVm8d7QEO1GkNtO55wdIHqwzoPWwO7E8cpKzqZLpCEJS5C9VsamruQPzIBaw974tcA0imD7/G6VyAy+TZPFW8UXkG+AFIirsHQCAXrS1FTQ/W6bbcTjopefUVFJn4J7OqpyooORksjkYmDUD2L05Q1ZdHXttsxk8beGo/MsXTCHJwlYfooPK+/9wtqB5BSBi7DyMgE67zefRqqqZgWmRzGC12UFZMDuvKf/FtZ08FoWSQycRCq39bQ3I7CEQlaGbwEP/pOJQlPYDQqRiTPYdPMm4HLA0hnP3pjemRCWR9U0FC9ZtvthEM9VE8K6Mrq3d9VUEveMYaIfKjewc+UNcVxo223Y4S8Dl/5TqUkfsD/vCR5iLKlqPeh9xGK+U5nF87EXxEJ1vm9WzVUX2JVRPIXL7RHfkXFr9gXSB2ph+qOYRRIghL5UP2RxhzefigRkbD1BAb5TuNETEP3iOTXJpd5M9DAdyrr0AObIxLMbkBRZU0a3rXtdoJR2GupqNiHGYFcOVVZ0cF4aSQukQ/V7ykrCkOnNWGDz/mw7zR6YwqOl0AdE8d7v+AM36ksRi/sjUSwLuldp6F6D+mRyF38YKcLfAlXKWs6mC+MhCXiofoXzlbW3IiykQhdv/Ea+H0n9sPnKBKJ3LpBMW84/H8eTYzMpMXbkFdZswYjbLudYKh3KwcxsUy9+7sqasi7xhgRD9XqU8ryor9tp2Pib56F3b5SyIM38aqMUCvieY94n6Kgz1Q+wguRaHlW8S7SUA207XaCcTKKKComgb7vv7HKChmpNkmkQ/Umqm/J0BuVIxC8trMn1vlKoQi+x40RyKmLXOyNQXmfadyLHyIRrO9W3mIDGIF/IpG3eCGv11pRsRkLfV4zk7L9iVtEOlQPwl5lTRTa1JnsjXm+UqiACThDArU2Lb1fcaKvFDJxGRZHIKA19E5T1mQEMNlRUKGdssLvaPUcbFTWSKg2SYRDNak+pawNmkcggD2Cn33pq2ICmkQgny5TzZuAFr5S2IZe2BGBYH2LhuY9ZEQgZ/FDB2WF39HqMcqKBpHor4wuEQ7VY7BUWXObbadjyRef8qWvgVSZ8x0AJb3RPtsJSyIxvexMVFfWrMRo224nFKegsKLCb6taPVSrz1MXVIhwqH5TWVENZ9t2OldW8iJk+NCfgEkyDzMginjD0c1XCp/jLedbn3k8nQ2BPrbtdkKR12ulqPjL13yC/VQP9Z3DLZKEI7KheiWHK2v6I9nxIJbGCzXGiP6jCSbI9qEBUsj7Huf6SuH2CGw1eh0KKWu+xU7n8xVPtFdW+OkCn4qdioq8aBtqeSQekQ3V7yJdUVEUV9t2OlfuxhQf6iYYgzISqAMln/eFr/3B9+Fi54NaSe9iZc1ufGfb7YQi3FCt3v3dEsXkzWOUiIbqNKqv7bwKxR2/mb7hqz7UDfATSjqewyiS7A3GVT70v6Of7Szkis7Usk9sO51QNFcerZ7o42rqoVq6v03jOf7Bnw2fU70dsAD1nQ5kG3gi1murj8d46fo2RgYvhvoa/v/4DBc5XjdtlUcnk7ESxzmeq3iiM9UDaHhMQQu5F4wS0Vb1W8qKDo4HauB6H4G6GsZIoDZIHu8jqK8//o+bsNLxb2L1dnU6vrDtdELh8l5gxXGybRfinkiG6vmcoKy5wbbTufAxv9XWVsAYVJVAbZT83rc4RVu9BdcEsNWjSc5BWWWNdIGHictdzKc5P2E3+kQyVKsv0yqDXradzpHV1N9FrRC+kwPdQ6CoNxL1tdWjHd85O5+nPnnuNyx1+vMjvjgZJW27kC1n2nYgAYhgqN5B9a/5a5Hf6WB2HTZrKvPgs0jswBYPlPZ+1tgu5BB3YYXTga2vxm7gn9l2OoHI43Ww7UI2JKG7bRcSgAiG6g+xXVHh4RrbTufIQOofK/gWekqgDo1K3ijtts12XOd0J3hd5W02ZCOUcHG1C/xkmV4YAhEM1eoHX3Z1eqPNDbxHW/sArnM4Z/FIXe8z5NHU/owPbbufI9cqK36PwAYv8cMZth3IhrNsO5AQRC5Up3K+suZ6207nyP3YoqnsjSdsO5+AdPWe1tbejc0Oh7YLUUJZI1PLwqOad5JtF7JERqrDIHKhWn2ZVkWnb6Xp1D1Q8AQMhCdtagvc7eluibIB99l2PgcKauxa9oWcsRUiPW07kAUV0ci2CwlBxEL1Go0lTZc6vJAgkzcjU0tZEsNkKz9rvKm9cGsgJjsc2tT7n9ZgnG2nEwgXQ/WZ0mAIhYiF6oFIU9ZcatvpHPMzTUuXhI+dHn+Pdwp4X6O8lpK4yeF2aCOvibJGusDD42TUtu3CMbjcZxlPRCpUp/NdZU0DNHI2pG3iA5rKR9HD2VwlBlW8ocirpZyL92w7nwOXKCu+wR5nPz3iDc/rY9uFoyjm7Lz0eCNSofp7/KOsudK20znwKDZp6bpAN8QLwdHWe1hT+RC2OhvcLlGe374dP9p2OoG4Unv9gRnOQUFpNIRCpEK1+i5lSbjIttPZskKjjwAAymAwkuTxcID70UFLtwGP23Y9Wyp67ZQ1n9p2OoGo7Lk1Xn2BbQcShgiF6sVUn8DSCZWdDWqPY5+GysMHcjCHIyR5g1BcSzkAyxxuV6vyo9NL0OKNhzR2lTNFKen+Do0Iheq3oP4+UN/XOCz+4BAt3U04y50nNeGp7g3Q0u3H/9l2PVt6o4Bybr6x7XQC0dihdvV5yCdvo5CITKjeRfWdngrhHNtuZ8ujGnPZgQZ43rbjwhFcprEWGQCGYqajLdHiXg9ljcwCD5MBzhzcoXfvCzpEIFRncg5f49nYqqw8C0Ud/eZbSp2DDpLwnkzicI63UE1DRYfb1epd4BPwFhc7+ukRf1T2XrXtAgCgGtTnNQi6JNt2IHsyORfjMQ4TtU+dcveb7/+QrqG6DS0lUDtHcW8QT9MYnBmJCWznZH2egeLYpqTIxE0AjmN7tEN71JdNMQxzubea9ve9uwF5pJ5Dw3PvUziTizAZKRiruZTpECWxxtGjL5ewvsYeZTUxD4WczI9wpdbMg7aY4Gh9Xq293S0AlMWpaIPOaCIrFQzyPB/Q+uAPipJYhtJSv6HhUKjO4GJMRgrGaLeij+RavOfojXQt31fWePgJXRzNj7CJdbU+LMfDzXb1aJ4eQCpFcSo6ozVORV4ncxl1ZvF6/Gbp2sXwIc6WWg0RB0J10CH6EGPQyclbaS2rayzTugofOJkb4QDv8AYNVRf87GStZrIKVgeWWhG0kJBtBHIc3se32BPiNUvhZPTEhSgjdRkqFkN1BmdjEiYjRfsQyJyogJWOjqTcz2eUNUWxVI5vd5pMtsZUDd0vjs4/6M/XAk+zCFqgNdqgnSzxCZT9nIkpmI2/sQL/BNgpXgjFUBTFUBLFUAyVUA1VURs1pe6sYCFUp3M6xmM8JmGHwavcheedvKV2sJrGp8nzuMvJ3Aj/MZPNkaGs6onvnazZqWxpLO0iaIN2aI9TpJVtgC3cgR3Yjl0H/pbLr4v9u1FpYeQ7+KcCKIgSKObwiYSJSIih+lArerTGsit1FuIEJ2+0l3mHsuZ4LJB2SATox9eVNR4Wop6TdVuHywxfoRCaoA06ow0KOFkCguAOIYTqNE7DeIzH5IPfeWHQHqlOPvwZrI2/lFXfyQSOSLCNdbBeWXUD3nKydp9kWCu/C6IF2qMDTpWQLQjZYDBUp3MOUjAJExXXaAbBJ7jEyYd+GM9W1pyGFCfzIhzLK7xdWVMIK5xc9LKBVbE31CsmoxE6ozXao5iD5SEINjEQqsm5GI0UTMRuS5kqhVWOfp93YYqyZipOdTIvwrHsZR2sVFY9hfudrGG91eL+yYcWOA2n4VQZLRWEgwQaqtdxAlLwI1ZZztRteNnJR3wx6yvvatUDPzqZFyFr3mNfZU0l/O1kUJrFplavXwit0Fm2UhEEBBSqd3EKUpCCmRrbKwZPHixCbScf7Vupfg7Tr2juZF6ErEnniViirPoG5zhZy635i20XAJRFB3RGazRwsowEIQx8hep0TkMKRmOq1Q3ujuZ8DHXykd7BytiuqHF1KY+QPZ/wMmVNN4x0sp4/p0v76NfAaeiETijvZFkJgkk0Q/UfHIUUjLMwYSx3XG2HqneNepiBJk7mRcieTDbCfEVNEv5AdQdrOp31YXrJlioeGqEbuqG1k4MGgmAGxVCdyVkYjh8ww7bf2dIRYx19gFtSdTerrhjlaF6EnPiW5ypr/ocnnKzrj3m5bReyoTA64ix0Q1Uny00QgiXmUL2LP+EH/IANtj3OhZ8dPdRiAU9U1oxENyfzIuQMWR+LFTUVscLJjXAzeDJm23YiR05CN3RDG9n5TIhrYgjV//AHDMO4kNdY6tEdIxx9YO/kS4qKulgk5/5GlDd5s7LG1Y/MX9jGiemiOVMUndENZ6CSk2UoCH7JMVTP51cYjlkReFAPUBWTUMXJR3U/qyjvY/UurnMyL0Lu7GZV5UMxr8BgR+tb/TPTFh6a41yci+MdLUlB0CWbUP0XP8PnmGfbOwVOwPW43tGNT4BveJ6iogyWo5CjuRFy5x4+r6goirWO1ngaL8S3tp1QoiHOxTlo5GRpCoIOx4Tq3fwC72FqZFrSQHn0wuVo7fRj2ZtfKSpcPRlMiI3lPF55CeNnuMjROid/wNtIwX7bjihRC+fgfNnrT4gLjgjVv3MAhoRy7lUwVMG5OBdtnN/LaAfLKx/+7urJYEKsqH+enY3vnK7zLRyO75GivDuAXerjavRBWadLVhBy499QvZyPY4hTW5nkRC2ch/NwSkSmXX3EPoqKlvglEjkTsmcy2ygqCmA9ijpf72mcjJEYhbm2HVGgMO7CwxF5WwhCVhwM1e/zVuV2nw3yoDm6o2fERqHO5I+KinfQN1I5FLKiKWcpKr5E78jU+yqOxCikOLkNUlZ8gKsiU7aCcDQeAcxjI+fHpsujG7qjC0pF7nHbzAqKY3wFsRolIpdP4Whe4p2KiovxacTqPZ1TMAZjMRVptl3JhVaYHLGyFYT/8Ah7h93FQh60QHd0R5PIdl99wGsUFZfi44jmVTic1ayKDCVFMaxH/kjW/S5OwFiMwRxk2nYlG/JiM4pEsmwFAfAIsryTe5BVQDd0QxeUjPjjdTaHKSq+w9kRz7NwgM4co6j4CadHuu43MhVjMMa5ncMBdzeZEYTcSQYWOhaoS6I9OqFTnBx5t4cpiopC6GLbaSEgLoVGqLbttC/KeOfjfAArOQbjMB7LbTt0GJPkyRIii0cM4tW2vQAAFEFbdELHODtI/nv2UlT0xpdxlP/EZjuPU5yuWR8L4qr2l3M8UjEef9p2BMAF+CKuylZIJJKBJdZdaITO6Iy2ER2ly5nhyopzbLssBEYx7wzF1dULsYLxdFZUNa8P+gBYw0lIwSQssjiB1cVOeUGIDY84j99YuXQyTkEndEQrFIyjV9ORZLIS1iop8mMdisdteSQe31H10yu+935fxVRMwHgrDYSi2BbZyalCouMRJzHcvb6T0BCdcBraRWC7B7/MYlNFxWlIiftSSST2sTR2KSkuxOcJcAes4QRMxAQsCHXG+GpUSICyFeKRZGBVaBerg07ohI4okzCPi+qkIqCzbZeFQMnvdVDcAGeCbZdDoYJ3IS4EsJmTMB4TMSuUnRKXo4LtjAuCFsn7ucX4RY5DW3RGV1RLmBB9iLHKCgnV8UZXqIXqNfidiXOIYymvJ3oC2MVZmIwUTMJeg1dbYzu7gqBJ8jqD0zzKoAXaoDOaJugIUTonKSpKooltp4WAUV98NQHH23Y6dAp7bdAG9yKdc5CCSZhk5NggtXkjguAOyesMJFoYLdEZneNs2ZU6U7FDUdEJeRK6xOKRul4N/qWkmAg3lk/aINlrhma4FxmcjUmYjLHYFGDq0qoWokryxgATK4BW6IROOAXJEnAApCorOtl2WTDA6XhH6fdTbTvsAHm8ZmiG/sjkfIzHREwMpEUsoVqIKslBnItzYNlVJ7RCAQnRhzFFWdHKtsuCAVRD9VLspOxWfYAk7ySchFsBLOFETMAEX/ufSQe4EFV8huqa6IzO6CLnQGUBOU1RUQANbDstGKAz8iqdO5WJOWht22nnqOvVxbUAVnMyJmEyZmrMstlsOxOCoEnydi1Z4i27UucPqA4uNEVeKc84pJjXRPGzbaaE6myp6PVGbwDrDray5yhot9p2XhA0UQ7VLXAjOqGyhJRcUe/+PtW2y4IhToZaqJ5l2+EIUP7gwSD5GHuPxVbbTguCJsod4F3RR8J0TKh2fwMn23ZZMEQzxd/PsO1wnGJ+DwlBMEOS2qaHQuyot4wkVMcrqjW7CHvtnWoRx+zBPilXIZIkqR3RJ8TOAsXf50ct2y4LhqiPgkq/T7N+3l28stW2A4KgRZLJbfwSmZXcqqioI9ufxC3JXmNFxe+2XY5TglicKgjhI6HaEKptauAE2y4LBlHtApezlc2w27YDgqCFhGpDSKgWDqex4u8lVJtB5uYI0UTGqg2xUFkhoTqeqa34ewnVZpBWtRBNpFVtCLUDGgCgjm2XBYOonpUlodoM0qoWoknSftsexCl/Kiuq2nZZMEgFr6jS79dihywrMsBO2w4IghZJGbY9iEvSuUpRURClbDstGEV1KZ6fYymE7JAOcCGaJGXa9iAuWYl0RUUVeLJUK65R7QKXU6BMIKFaiCbSqjbC38qKSrZdFgyjOrFsnW2H4xKVE84EwR2kVW0E9SPsK9t2WTBMDcXfS6vaBKq9XYLgBhKqjbBBWSGt6ninnOLvpVVtAgnVQjSRDnAjrFdWyKSyeKes4u+lVW0Ced8J0URa1UZQb1WXtO2yYBjVUC2tahNIq1qIJtKqNsJGZUVx2y4LhlEN1er3kJA7EqqFaCKtaiNsVlZIqzreKY68Sr+XfbVMIKFaiCbSqjaC+mtWQnW843lllH4vodoEEqqFaCKtaiOoH4IiHeDxT2mlX0uoNoGEaiGaSKg2gvqeSAVsuywYJ7/SryVUm0BCtRBNpAPcCOqhOp9tlwXjqNXxfqTJgR2BI6FaiCbSqjaC+tGiybZdFoyj1qqWdrUJJFQL0URa1UZQL1W12cFCFFHtOZGz5INHQrUQTaRVbQT1Q7KkAzz+Ua3jJNsOxyESqoVoIqHaCOovWWlVxz8Squ0jvYhCNJFQbQT1l6zMIIp/VOcjSKgOHnnOhGiSpN5VK+SO+ktWOubiH9XV9hKqg0embwrRJEleBybIo6zYb9tlwTiq08Tk2QweCdVCNJFWtREKKyvSbLssGEd1tb2E6uCRUC1EE2lVG6GoskJa1fGPaqtaphoGj4RqIZpIq9oIRZQV0qqOf9Ra1fmRXx7OwJFQLUQTaVUbQb1VLdtdxD9q08qK2XY3LpFQLUQTaVUbQb1VvdW2y4Jxdir9WkK1CSRUC9FEWtVGUD99eottlwXDpHGz0u8lVJtAQrUQTSRUG6GcskJCdbyzHmrbDckJ5iaQUC1EE+kAN0J5ZcVW2y4Lhlmr+HsJ1SaQUC1EE2lVG0E9VEurOt5Zr/h79UEUIXckVAvRRFrVRlAP1WrjmEL0UG1VV7TtcFyivo+gILiAtKqNoB6qV9l2WTDMOsXfV7LtcFwirWohmkioNkIVZcU/tl0WDLNS8fcSqk0goVqIJhKqjVDEK6OoUH2RC1FjieLvK9t2OC6RzVqFaCJj1Yaoofj7VciUo3TjGtVQLa1qExSy7YAgaCGh2hDVFX+/X3mGsBAldlFtNkIyytp2OS5RP/NOEFxAOsANodqqli7w+GYZ1DpNqiCPfEUbQEK1EE0kVBtCPVSrdpAKUUK1duvadjhOkVAtRBPpADdEPWXFItsuCwaRUO0GEqqFaJIkixfMUF9ZIaE6npmt+Hv1Tz0hFmRamRBNkgrY9iBOKae8XEtCdTwzTfH30qo2g4RqIZok5bftQdyi2q7+HftkuVacskZx/reEalOUsO2AIGghrWpjqIbqdCyz7bJgiN8Uf18UFWy7HKfIeWVCNJFWtTEaKCtm2HZZMIRqqD4Jnsz3NEAh5JdyFSKJcqt6IZZIN21MNFFWqI5nClHhV8Xfn2Lb4ThF2tRCVElWDdVDMRQV2A7t0R4nyLd/DjRGHmQoKSRUxyeZnK6oaGbb5QiwgZMwAROQpqCRM8CFqJKsMyNyDb7AFwDKoR3boQNOlJCdBYW9elygpJiDPSwoJRl3zMQWRYW0qrNnFcdjIiZgkeL+b4BMKhOiS7Kf78z1+ApfASiNtuyA9jhJdlQ5gmZQC9VpmIMWtp0WAme04u+Lo7Ztlx3kd07EeEzEnz7SKGU7E4Kgia9QfYhN+A7fASiCFuyM1miOfBKyATTDh4qKqRKq45AUxd83kU/ew/iTKZiECVgeQFoyr16IKoGE6kPsRApSABRGS7ZGG7RL8JDdSlkxBrfZdloImN2crKiQ7m8gg4sxGSkYh40BpiqhWogqgYbqQ+w6KmS3TdAlEo1RFDuUFOORxrwJWVbxywTsU1S0s+2yRdI5B5MwGSnK4/uxIKFaiCrJpQ0mfihkF0JLtkcHNE+wkJ3steTPSoodmIbWtt0WAkV1pDoP2th22QK7OBUTMAG/Yo/Bq5S3nU1B0CS5WggX2Y0xGAOgAFqwPdqjBRJlnnNbqIVqIEVCdZwxQvH3TVEiQZ4OANjKSZiICZihtOhKF2lVC1EluWaIF9uLVKQCyI/mbI/2aInCcf5SUu/KTMHDtp0WAmQuFysqOth2ORTWcyImYALmIjPEq4bRMBEEE3hEea63dPFkNEJndEZ7xOv47D6WwU4lRV6sRak4LY1E5CE+rqgYge5xXP/rOAGTMBkzNVZF+6UItssOEEJE8Yj2nGDZiRLogM7ojLpx+BidxR8UFYNxRRyWQ6JSn2qHmyZjM4rGYf2v4jhMwHgstehDE8yMw5IVEoNkoANsh+qtB9dlH8e26IweqBxHD1RXqIbqb3CFbaeFgJivGKiB5nEWqNdwElIwCQttOwLIxjJChEkGuuAx214cZC2GYig8NOSBbvFCcfDS6qqs+Ak7GF+v68RlqLLiLNsuB8RKjkEqxuNv244cRj3bDgiCNh6RzuMD2QkoaAqgHXqgO+pEPGwdzz8UFV+id8TzLBzgBOVJZQtQP9J1v4njMAZjrXZ0Z8fP6BLpshUSGY8A3uENtv3IgRrogs7oFtmOwdv5iqLiQnwe0bwKhzOZqiukj8eyiNb8bv6CFKRgVqgzulWI11kAQmLgEUAaO1sfr86NguiAHuiOWpF72CZSdclWQaxOqLW18cqVHKKouBMvRKze0zkVYzAGv2K/bVdyoRUmR6xsBeE/vANLJjazE+bY9iUm6qAHzkZb5InMY5fJylijqHkb10cmf0LWbGNF7FbUpKJ9ZOp9FUdhFFKw1bYjMfIBropM2QrC0XiHVjfu5f/hdee/jA9RDr1wLjpFZD32DXxHUXEqpkYiZ0L2vMmbFRWlsA7Jztd7GidhFEZhrm1HFCiMO/CInFcmRBjv8I0IVvFlvKt4wIRNSqInzsXpKOD4I/gz1eeBR316kdCMMxUVV+N9p+t8M4fje6RE6A0BAA1wNS5HWadLVhBywzt6z6Bt/ByD8KttvxQoijNwBU53+Js5nZWguiPcXXje2fwIuTOd6kdZjkEnR+ucHI63kRLKPt3BUQfn4Hyc7GiZCoIKXtbb+y3gYHyJFba9U6AqbkB/Z1di9+driopyWO58b4GQPZfyU0VFJaxw9HNzD8/DSNtOKNEU5+AcNHCyNAVBBy/7nXjJqRiKr7DSto8xUwWTUNXJx3MaT1XWvI+rncyLkDsrWUu5BepuP4r6Z4ct8qANeuEcVHO0JAVBFy+3TfPJqRiOHyMyiaQrRjn6kKpvhnEi5srhAhHlNr6qrJmFxk7W9he8yLYLMVAaXdANPWRMWohTcg3Vh1jJEfgRY5SXn4TNTzjdyYf1CT6orBmNzk7mRciZLayqeJ4aUB8LnKzrHayNdbadyIE8OBnd0A2nRGj5piCoE3OoPsBeTkIKvodqCzE8OmCck4/sStZAhqKmB350Mi9CzjzNB9Q1uM/JulY/xDMsyqIDOuMsVHCy3AQhWBRD9SEW8EeMwGSk2/Y/C35Fcycf3rM5TFHhYb4s2Yoce1lTecubfFiB8g7WtE7/gGmS0Qpd0Q1NZHhISCA0Q/UBtnE8xmIs5ls4Jj57zsNXTj7CP/JMZc1F+MzJvAjZ8zLvUNZcjE+drOdneL9tF/7FQ0N0wmloLzt5CwmIr1B9iA1MxSRMxgzbuQEAJGExajv4MGeypvIJZkmYhZMczIuQHTtZS3kNPTABbR2s5TTWxD+2nQBQAW3i7hx7QVAjkFB9iAPHyP9k/UjN2/Cykw+1ztSy3vjSybwIWfMoH1HWNMB8J+t4MK+yev0Do9GtZX20IAQbqg+xmOMwBqnYZClTpbDKye1DNrAa9ihqPMxCIwfzImTFRtbCdmXVANzsZA03op0lmkXQHp1wGk6S0WhBOIiRUH2ATM5FKsZhIraEnq2PcamTD3lfvqesOQffOJkX4Vju4ovKmiL4B8UdrGGdbXv8UQxt0Q7t0SwCh5YIQrgYDNWHyOQiTEYKxmBzaNlqj1QnH/ZFbKA8Bc/DeCdHMoWjWck62Kus6o9XnKxd9c1wdSmCFuiM1jg1IiflCUL4hBCqD5HBxZiMFKSE0speiBOcfOzP4AhlTRNMd3R3aOFwLuBQZU1eLHNyG8wMVsZaw9coilMlRAtCTIQYqg+RwZlIxXhMMHqYnqs7Ko/laRoq2Q/cfcaws4bqcnzoZM3qHNwaK2XRDu3RHifKB2jg7ONubEcGtiETW0FsAXJoGhVHEgojH/KjEPKgGICSyIsiUisOYiFUHyKDszEJkzEaWw2kfhz+cXSrwTacrKwph6VOjmcKh0hnU8xTVnmYixOdrNcrOSTwNMuhOdqgM5rKdLGA2M/5mI+/sRIrsQ6bsTmQDWvyogRKHrQDfyqHSqiIKhLELWIxVB8ijb9gFEZhTsAbqaTgNCdvrJHsoaG6F884mRvhAC/yLg3VmRjuZK3uZXmNmezZURHt0R7tUc/JvEYT8kMMxK8hnyBeBiegHhqjg+yiGDoOhOpDrOUojMLowCafXYOBjt5OzfmbsiYZ09DE0fwIa1kP2zR0E9HGyTr9mucHkEqVgyHaxQ2Jos6zvM/q9athAM6Ueg0Rh0L1ATI4BUPxFVb7TqkE1iK/kzfT9+yloWqOXxzt0hcu4hcaKlePlgHO59c+1Ad2F5OtS8yxjrWwy2vXd4AAAGdZSURBVLIPpbEMJaWGQ8O5UH2ATE7GUHzqcxOVb9HLyVuJPEVrE9YXcYeT+Ul0vmJvLd1ktHKyPnewvPJWPQBQ62Ar2sUZ7fHFPXzetgsAnsU9UtOh4WioPsA+foOBGKc9hn0hPnf0VtKbX1sIc1HL0RwlLhvZQGPXb+AsDHO0Lj9iH0VFJTyLDqjkaH7ijf2shI22nQBQA7/LHP7QSLLtQE7k9y72xnjz0At698Nw7HD0S+R0r5OGajduAB3NUeJyvVagToKr50ADnysrLsWlngTqsPjeiUAN/IWJtl1IIJwO1Qdo4H3rTcEJGsrd+Ma289nyrNbnRwrC2kFKiI1PqXePXejszu6bOFpZc4FtpxOK92078C86MzQEPZzuAD+cHbwEPyirOmO0oy9E3ak7BfCrHIvpDGvYUGs+RTIWoI6jtfgGb1FUHI9ljuYlHvmH1ZFh24mDlMEa2a89JCLQqj5AUe8L1FFWjcU/zn6LPIcCGqq9uBh7nM1TYpHJPpoTH/s6G6h12mwX2nY5ofjAmUANbMRY2y4kDJEJ1UAh71llTSY+s+12ttT0btfSLcSdtl0XAACPI0VLVxKP2nY9W2ZxlrJGb/67oAM5yLYLRyBd4GERmQ5wAEhndaxS1DTAfGfbLztZV3P9+Dc4x9lcJQpjebpm++Z13OJs7d3CNxQVdbHY2dzEH1PYyrYLR+Du7hXxRoRa1UCyd5WyZgHmOvs1UsR7RlN5BRY4m6vEYB0v0wzU9XGDbeezZS8/VdZcZNvphOJb2w4cxVaMs+1CghCpUA1chzzKmo9sO50Dl6GNlm4Hzsd2CdbWyOAlWKOpfd3hiTjfaBxQK7O/w8S9NS3qk30FHSIWqqt6XZQ1nyDd2aDmee8gn5ZyMfrIGmtr/E97Os256ORsoNaZUtZADm4IkVn8w7YLxzDctgMJQsRCNXCdsmKN0zdTfe8eTeX3eMK28wnKYKpPcDxAUbxs2/kc+Iupyhrp/g4T17q/AWAF5kmTIQQiF6p7ooKy5m3bTufI/1BbU/kIvpWHJHQm8Hpt7TOo6nAb9H1kKmtk9neY+DlExRzSBR4GkQvVOlPLRmOZwyGtgPe25sapmbgUUxzOWTzyO8/Ffk1tW4cnlAH7OVBZ0xh1Hf70iDeWcqFtF7LkR9sOJASRC9XAtcpO06Gt+LKik6f7Ct+Ds7BUgnVobGcv7dPe8uMdpw83+BLrlDUypSxMvrLtQDZMwXp5BxkngqG6hsbUskHY7/TN9Bxqaio34QxscDpv8cNe9sICbfWjOMHhQA28qaGRUB0m39l2IBsy8ZNtFxKACIZq4EZlxXoHFzkcThFvkHZV/I6e2C3B2jjpvMjHGtJmju8xN4NTlDUny5GsIbKBOmfch4N0gZsnkqH6TFRT1rxj2+lcaOf119ZOxTnYJ8HaKJm8Ct9rqwvhI4dXUwPAAA3NFbadTih+0pj0FxYpyJT3j2EiGarzeNcqa1Kx0PGb6Wk01tb+jF4SrI1yJz72oX7R8c7vTVQ/ozqfLNQKFZc7mTdhpm0X4p5IhmrgWo2NQ1xvV+f3vkQRbfUoXOLwVi9R5wG+4kPdHfrLu8LhfexV1vREGac/P+ILKp8ifiLo6Zr6Hop6B9cIsRPRUH2cd46yZhC2Oh7Kant+Nsj4BldJN5QRHuHTPtQV8CE8p4NaJnV2HlBfNCnoM1N5fn5bH1dTn7grodo0EQ3VOlPLdji+ZAsArvX8bCnxMa5BhgTrQCHvoZ8jKz0Mcb71ORx/KWsq4nTbbicU6t3feqcLHEA9VE+Wqa2GiWyobu+dqKx5PQJdxO9p710GAINxsePL0qIFeQue95XC3ejieKCGVg4vd3yaXLwRbqhujpKKir2YFGp5JB6RDdXQGP9b7uzKxP8o7g1DUR/6oeiFPRKsAyGD12qtNv6PTnjSdiZy5RdOVtZ40v0dKtuVl9JV87WFbR6vvbJGusDNEuFQfQWKKWtese10DNTz/E2AG4ke2CHB2jf7eQk+8JVCVXwegbbncxqa9rKhaKiMQZqiws9INaDTBa467U1QI8Khuqh3sbJmMn6NQBC72OvnS5+KzrKDmU+2sBu+9JVCfnyFss4HtCXUOXeur223E4xwu78BnVA9R7YXNUqEQzVwk4bmNdtOx8QL6OhLPw0tsUQeHG3+ZCsfO5MdYABOcT5QA89pbKxRGurrLwQ/qJ+O7jdU1/aqKyqofYa7EAuRDtUnea2VNUOxMgIhLK/3la/pZcAfaIXxEcipi0xhCyz2mUZfXBuBQL2Wn2qorkKBCOQtfljFZYqK0qjv+6rq7erUcIojQYl0qNZZspWGV207HROlvOHKszCPZDNOx4cSrJX5iqdhg8802uN129mIiVc0tj7xcJ1ttxMM9f6dNgGs5O+grJgQSmkkKhEP1b1RTlnzdkTGcet6XyLZVwr7cSUeomyLEjsZfJAXYI/PVOrjO+SLQLtzO3UmMHZAnQjkLZ5IVVb47f4GoDEEt1hGqw0S8VCdz7taWbMrIuPVQGfvbfh7KxKP4yxskQcoJtazK56A38Iqjx9RIhLB7F1s1VDpnq0u6JKqrPA7/xsAKnh1FRXExDCKI0GJeKgG+iKPsmYAtkUkeF3j+dkp6wAj0Bi/RSS/NpnEJhjjO5WC+A7VIxGo06gzFFRRppSFzD/8Q1FRCE0CuXIHZcV488WRsEQ+VNfweihrtvrc2CJMHvTUx+OPZgXaY4gE6xwgX2RHrPadThI+QYtIBGrgM/yjoboReSOSv3hBfaS6RUDDL+pd4DJabY7Ih2rgZg3Ni9gZmdD1Os71ncYeXIlrGJ08h8s6no27kO47HQ9v4ZzIBDKdo2HyyZSy0ElVVgTR/Q0AHZWH3+Zhk7xjDBEHofp0qI6pAJvwnm23YyaP9xnUew6O5QM0xCR5kI7ha54InW1AjuVZ9I1MoP6JszVUF6B8ZHIYL6QqK4KYVAYA5bx6iopMqG9SK8RGHIRqT6uL+AXsi0zYyud9pTFudCx/oyPuY1pk8m2ebbye52NjIGk9irsjFMZe0FLp9GAJfljBPxUVyWgR2NU7KStktNoUcRCqgStRRFmzGgNtu61AQW8YWgaQTjqeRQcsk2ANAPiJDfBuQGndjYciFKhnU+dwhVMiMw4fP6hPdGyCIoHVkvqhHf4nZgpZExehurh3qYbqmQi1q4Gi3gg0CySlX3ASnkr4tvU69mF3rAootRvxrO0MKaHXpr7DttsBsoMjOIPuH4qr/kkVVPc3AHRQHq2ei3XOl+lOTuUPjNyRRowLW0BPQzaAtv1Ws61sGVhiDTklYrkPzjI4hKUDTPAGZkSqLFczn4asGtMilcvsLY0vsThBsAz7crrDucpkOWXRN4Hmp6Gy5BOHy3MfP2MvFiAIFufz3Oewr0ebdQeCsvYaogrcE6GqIojtbBtYYkm8lVsjlv8gbAqbBJrgXcyMWCk+qCV7OWK5zM5m8+jw057DHP3YmqUs8bgu0Jzcqiy50smSJNbzcVY46h/rcqqj3h5r1h0Iyr7Ukr0RmYo6ZDvZKcDkyvJtpkeuDPRtFa9hUqBJPhS50tvL8hqyYtwWuZxmZUNYKMv/qMVXuMu5HD6nLKkXcB6+VpZUcq4UiSXsl029J/PhiLwBrTsQlO1nJQ1ZZe6NRDUdbrt5ZqAJNuToyJWBjm3h/dk8rvr2TARL7kMt2X0RzOnRtoPn5fiD8nzNsS7RLsqSawP2f6PGp+0Cp8owlV1yGR5tz7VOeZy1WXcgOHtUSxa9djWRxqsCTvIszotgOcRuu/kcSwWcaBJfj2SZnaIhKhJwt6oN+5OxjLtW52BnWll7WFBZ9FHgvjdSlrzkSPkRU9k5ph9WikBHuHUHgrN1zK8hqxLBdjWRyfsDTjKJFzr2NRyU7eO7rBx4sgU4NJKlNUlL9kgk83q4jWOZmH/cgN86Mf9gtIZoReB+36Ysae1A2RGzeZbCz/PzXSe8zt6sOxCkXawli2K7miBeDXjUFUzixVwU0dLI2rbxOa2BkdysDCdHtJwu0cpt1MepP1ae834qx1nP893KkhoGfP5OWeJxpeWyW8gLNNYE3eno5MIDZt2BIE2vxRDNdjVBfM8igSeah735S0TL40hbxXsOLskJ2o7n0oiW0KaDC1XU7IWI5vaQPa+1lBPszeVWc15fWWJi9vVm5lEWPW2x3Jazj4bHB+x87nb2XrfuQLDWTEv2prPVk5vNYhUjCbfgF5FeRTuDV2utHY7FWnJDZEvmVQ1RBQdnRsdumbzHh7wgH7a2oPNPDdFgI76qL26samm8fxef8dl8OdXZWRnWHQjWBmrJotuuJlZTZ5pQLFaVz3JN5MplG9+m3gdbbHaZw9/duVtjDdFbEc7vPl7kO5FaHGalBF7TEP1pxNM7NURfhV5mmfwskIbL8Vzi5B1v3YFgbbfmLlTRbVcTu3m5scST2ZPfcX9ESmcKr2ZhgxdI5isRKYmsbZqGqLpjy5dUbAe7BpTUaRamXJ6uLKliyMdhGqI6IffKzQhwc6hSHO/gPW/dgaBN5wsw2u1qgnjdWHcvCJbnnfzN6fKZwwdZz/BFyjHV6TLI3W7SEAW/+CcsW83GASaXj/dye4hlsUNjPcvlhvzbqjX2+2JopbU28I2NCvBz5+576w4EbX9rTimIcruaIH5jVcOXqMp+nOjEIpbDbT4fNh6kQbAp/3Ys56qWccy2irlbA6fnxOZky1gj8EQrcFBo5fGFhmigMd90Btnyc2YIZbWfz7OYgYQ9h1aHHzDrDgRvPbRkUW9XE2t4WgiXqcyb+J0Di3e283veyuNDulzfyO0Wf6yp7ycNPhHRXC8yskQPBE8JaX1ENw3RH8Y8U182BoKVuMxwWY02+pn+sFN3v3UHgrY9rKklLMmNTlWMjmXwSSaHcqlktuFj/MXCKHYaJ/MRtgkpnyBYil9H/s4g9EJ1eW6JYN7n8ziDyXu8lP8YLpWJGn2DJtZUH7KfNYVVOMOYV8t5vtlKIHibQ72I1h0I2h7TFL7mTJX4s8msFuLlCrIN7+JXxl9dxO/8nHeyvYGV5DlbR+vbOQRlmayrIbslcrmfxbLGL1KYTxjrZ5mhucf/dQZrSmeL0wNWgAMMDBrs5ZNGJ5D+Z1c7s82sdQeCteWaFdgg0quIj7QtASxQUbdK7Mo7+T5/DXDyzXpO5ge8j10D3787NsvLpyM7VpuVvaMhSuKvkSqB30K7V6oHvrVsBkfyDM3tWsAvjNaT+nz0/+zkgPf2G8HaIdUxCPZ2ZA2ER8QT5/JbDZWHVLTzbPseJEN5EzZau3olVEdVVEUVVENFlEIpFIuhdLdzDTZgA9ZgA5ZhGZZhi7UcAEA9fIhT4uqu2MuaWKOsaoHJSIpIOUxld2wN8Xod8AoaBVI2WzgIb+F3bX0S1qKswVp6gXf70nfG/9AhAP/+5u34zlw2s6Q7vkIh609AXIXqFHbR0l2CT6xXRNCs4w2h39LZk4xSKIXCyI9CAAqiAIA92Is07ASxFWnYgL22nTyMvLgbD6JA3N0Vr7G/hmogrolESUziGdge8jWTcCleQDkf5ZPBcfgQX2O3Lz+aYKbROprDxr7TqIurcA3KaPu5n2/h/7DTZDazoS2Go7jtZ8B2sz4426c5G7BICCOtduzjEEbt4tGacXac3hH7tCZdlorEVqpjQhq9PNZK8hWtCZaZnMp+AT2jdxmuoUyNpX5ZWQFeylStyVrDNCcMB2PNrD8DVi8erD2jKXw2Aq8hXdvCfoGfvxXfVoAPR2Z3Nh0boiW73vkSGaM98SkYq82hCgEog5N4W6D79482XkN9A0ysDh/nXwoeT6efsfJgrJHlYG07/4HZGs2F8MdHfj11bjZOa+ZvYlr3yJ6ZFatlsJGGLIlTnC6XSaGvDMjKTo1hQ8pd/IE3Br7qu0QIn5c/BZygx7Z8h5tz9Xsxe2tPtQvWGlld0Gs794GZ7qznEU6/goKxvXzKiVeZ21aHPyTAvUB8ryVr5syilWPtN0OHnerYWZyfTTkt4QB2N9T2vySUfcFKGkg2P8/jd9nOsZ7BK0LcQSF3a2wxWNvOe0A2UfO7q5ezr5+gbTX7Sld4tlaED8d978p/1kpL5uoJW3MsLeXLzvLwmsNmv6RxPt/hxQGN9GZnX4ZSN32MJV2SV3AYdx6Wi3X8mHr3qVlrwk2WnoO4mAGezmaYq6ErgIWoYXteX4j8ytsw1bYTzpEHV+FJX3N4o8ZEttNQlcQSo8uB9FjM9lhv24ljKISLUAprsQALsc/41fJjA4qGUDPDeLbR9POgPurCQyYWYpH57GjSFCkoaeE5iItQ/Qpv19I9hEede/WYJoV3an3WxCcezsATAa2MjRI9OFJDdRU+cKyk/mB7rLLthHV64MdQ6mUvK1re68ANmmG0hWAdB6F6HetpbXtQFQtR2LFXTxhk8mvci79su+EAnfEMmiXgHQAsZCOkK6tc2ypoJdvLfQzga5wbUq3cygG2M+sETZCCUiE/CUm2M+2fezX3J3olIQM1kOT19hbidVSx7YhVOuEXjPYSM1AD9b1rNFTELUh35tt+NTv5DtQN0RxRvwUq4qzQrnWt7cw6wix0w/aQn4TIh+op/FBL1xnnRP0Z9UEB7xbvd7yLmrYdsUASemICxngtE7j+gcdRXEM1D2/ZdvwgW9nVxzacAFAYH2AOfvVm4zLksZ0dH1yDvKHdyY28k21nV5tu+AST8Bl6BlLbv+Fs7A03WFufUufLMqhz6DmYl4scnc8arqXxQza27USIVoDXSc0ftGe1ZMW4yoHy28v2PpOoy3mH5WMhz3dk7a6q5eOKUOvjfes51rGGR6x4n8mmgaTaK9QFjLbL0Ke9oSm824HXjTs2kb01zseNmhVjv7jdQlbH9mmeT3S59TLM4AU+k+jObcfkYga7286YhvULuTb2sbr1PKtZcb5yzLmJabwjkLSvCfE8a9vl6Ms2sYyWsDy3Wn/duGZLeLNDG0kEba04mLukzo+yr7RkHsdaLsnbfSZwZbZH3k5kS9uVomSVY9jtK2j7yalNSXI2j5dzTTYl9CHzB3CFeyVUx2K6u9J+JC/tLG0Pv2Rn204EbMXZN24P3/Bv7bRkDazukv6SzwQeyLEllMkvWMN2tcRoBWLYyNSEDY/IMUAncUKO5TM6kANeXgypDmyXpg+brtlp2zrEToso2lzexuNsOxGA5WEnfsQ9Utc52EzNHezCej0da5/72nPP40sxeL6Xz7GE7arJ1YryR2u1sIG3BdImNWfF+Wq2fSf/2aQAehI9DgmlHmyXqLZlsIWWMA9nycs7htKdyL6aB6DYtyS25itcLfUcg12hJStqadQ/1VeA8DggZq838BbmtV05OeSkJ5dZvr+X80pHu8KTeBXXxlg60zUHUQ+3ZA4PoS5sl6q2DdQU3iwv8JhtF4fykgi0L/4zjy34EldKHcdsqzQ7AS+yUMYLfd2LSXxH0efFPNN29RxjyWzLp7jYkTt8JR9wrjP8FP6qVDrzWdH3NQtzpvEasV2umrZNs4u2lNVjzKJp+/kzbwz0bF0TVoK9+YG0pDXsUU3hyJDLeovmjPUD5nGglr8jnDlCtjQv5efc4twdvpeDnJmMV47vM0O5hH4PYFZ7ZePvHttlq2m3agpVv6vF/rOFfJndWci2G0eZxya8nxNiGJcSy9p2a76oaod6Flk6u/lK4HVtX/fxOctDQUV4Jcc5fAgpQfzORy1/1OTlbdofMssDmErYnLuN1pD1KtaxeZpjJE0dv92jYHs5nk/xTJa27EhJduT/+IO1I+niyfQWbYHPhFj29/qS+/V0Da+wskWKx3YcxB2Rucen8w5WtnLp07jAVykFEayvMlpPETyug+yI8Ro6D5OR2JtJBstyzsM8zMWfWIG1IVwvL6qiBqqjJhriJFSVmgyQ7hyloSqEBageSj2M5BnQf1P9Hx4PwMup7IffwsjsQcrjGlyNWpG7zzM5CZ/jK2wI7YrV8CLO811OK9jB957yQ9DHWH1FMFR/zMu1dO4d4Rc/7OVyLMdyrMByLMdWbMFW7PCRXn6URimUQimURhXUQHVURyXkkfozxCI2QpqG7jx8FUKdrGUjH2dSX4d3A/Ixk4NxfyinY7fDjTgX+SJ8v6czBYPwHfYbvk5B3IN7UTCQkvIfrAtjOuoZqrXIheodrIfVGrpiWIwKEb71o0cGt2DrwbB94JTbvdgDANjx7wGMJQEUQEEAJeAhP4ocDNGJeeaZTe7ii1q6H9HDeF2dyR+1td0xDMkBeriVD+ItZBjLazFchhtxYpzc/xv4EQZikbH0z8WLgfbr+A/W7TEOnpnasz26oWp3agpfjsx4j5hY+LZdc8nK8cY3mfnOh7iJkXHeWWxlJKt1+Qa3x+F7aiKvYMHAk23A0QbKyv+Ytam9MCPWqtbtqKuP2SEeFScI0eNDXqGlewwPGnyy0lkXf2pqy2ImKhvxjRyCewPsCvdwGm5DdyTF7TtqEwfiLSwPKLXSeBTXB9pb8h9+W9YnYY4RvyIWqrvxJy3dGHSK24dAEIKA7IAJGrqCmI+axp6uceykqUzCj+hm8KkPqiu8AC5FfzRMgPdTBr/HAIzzmUpe3ISHUdJgefkL1uWwzohvSeYyHDxDNQP1BRKoBSEXPO8V5NHQ7cHtBr3Kq628x2igBkp4r3vT0cpXGmXxKJZjoJcIgRrI453rjfXm4hrk106jO+biFc9koAaqeqmooa0+05BXEWpV72F9/K2hK4SFqJYQj4Ig+ONGvq2lG4azDD1hu1keOzV0FfBHQPOCc0a/K7wG7sTVofjoHmv4Kt7GNkXVCXjJ8OfXf+i3rGegaaK3qp/QCtTA/yRQC0JMPIkyWrpbsMvQN38hr5eWrmJIQdDzrvSW4BbF/oiT8DGW4mYvMQM1UMF7xluB51E5ZkUpvIo5oQVqoKo3VEvXwVCgRnRmgC/TPFPn+FC3PxQTi7a9pSl82NhTlqop/C3U5z72WeHt+KMcw3vQ9vFNVs31Z8m8xcLZDVdpycYZ89N6ZcVqPTSFP8hDISYWs6WziZawIP809qSdoiXrE/KTn8lBLJfjT5J4Nn+R99FRllu47upzy1A9m6i1kWwHg55ar6jYbJimsKc8GGJiSjZJc7frc409a19oyfJwYehP/xb2Y54s/ysvL+d8eRtlY/s5hLWy+I/a/NJKmaWxkZbQXJs6IqF6L+toCU1+6YuJxatdpikcZehpS8/yNZ679bby9M9m66P+qTD7cbm8iXKxo8N1CT5jbfDyeS1ZRzlZ63FN4ePyeIiJKdsazUMfT+B+Q0/cq1oyj1OtvAEyOYTlD/6lDB+2MM4aVTsUrpN4OddZK7WVLKIlTE30k7X+YT3s0tAdj3kokKAzLAXBD8/xXi3dy7jNyBO3i9WxUUN3On6y9AbYygcxAv1xLQrJO0iJ/fwIp1rdBb03v9JQdcZooz5HIFRfQL1p82EcJCAI8ch+noQlGjpzh+K8xDu1dGPRUd4CggKj2F1DlYTfzC3TOngFxxmrGajPlUAtCJrk817X0m3H/xny6CZU1dLdiUz3WyOCM+xjfy3dpYYDtfOhOp23aekKQe9IP0EQAKCLd5aWbjB+NRIaC3gPaelm4RMT7ghxylNYqqHKh0eMe+Z4qH4d87R0/xfoKaaCkHi8ggIaqkzcbKgdeyXqa+nux25pVwsx8Tuf09L1N3hgzSGcDtXr+ZiWrjbusO26IEScmp7e6PAMfGjEnzye3ttgFV4y4o8Qf/THXg1VSdwXgm9OTyu7ioO1dCPQXdrUguCTPTxB64ThcliK4kaewJacqqEqgqWGJrsJ8cQXvEhL9wLuDOHucrhVPZ16X+e9JVALQgAU9J7V0q2HXvs3d57UUu2E3ji3kEjs0FxjUA03h+Kfs63qTLbENA2dHHkpCMHRieM0VMmYZWhl7Pn8WkOVBzNxkrwVhBy4na9o6T7GpaHcWc62qt/XCtTAwxKoBSEwXkWyhioddxvy50UU0lBlyOwVIUfmcICWrgUuCclDR0P1Fj6gpTsBt9l2XRDiiIbeDVq6UfjZSIddNU9vH7Ux+MbVDkTBOpm8CekaOg+vwgupaehoB/gtfENLNwadpE0tCAGyhbWxSUN3EmYij4GncR8bYpmGrioWySafQpa8x75auj4YEtod5WSrej7f0dJdLIFaEAKmpPewlm4uhhjxJ7/3vJZuhWyLJGTJZs0+3CJ4OkQvnWxVd+B4DVVRLEIlCdWCEDDpbIL5GrqKWIrCRp7IMzhCQ1UQi2Qmi3AM1/ADLd2TeCDEu8nBVvWnWoEaeEQCtSAYINl7RUu32lg79lXk11Dtgd44txDPTOYgLV2VkOdFOdeq3s06WKWhOxEzkVdCtSAY4Sz+oKEqgmU4zshTeR/11nynor28JYR/yWBTzNVSfoneod5JzrWqX9AK1MBrEqgFwRgva7Vjd0JvnDt3/ocKWrqbke5a60SwyNuagbo1zg/ZU8da1etZG9s1dJfhIwnUgmCQO/iyhioPZhvaDGUwr9LSvYGbEvRdsYPbsQ/p2AEAyI9CyIsiKJLAjZwtrIONGrokTEeTkEvNsVB9g9bc72JYhIoJe7sJQhhsZx2s09D1wI9Gns1MtsBvGrpSWIIycf+2yOByLMUS/IM1WIm12IBtyMzmt8VQFmVQFtVQFVVRHfVQIu7L5wD9+ZqWri/eCb2EnArVi9lQayH6K+ifILeWINjjbd6opfsJpxt5PqewNXTeX9fh3Th9X+znbEzDNMzGUuzzkU4l1EcDNMHJqIekOC0rYBEbIU1DVxJLUDaxQ7Xe1BWZUCYIYaA7BcfUZijAZfxEQ5WEyWgRV2+MfZyAkZiCWb4CdFYURTO0Qge0jsPtY7pzlJbuddxioSwcCtWp7KiTAUxAm7i7iQTBRVLYRUv3ES4z8oyuYl3s0tA1xTRDHw9h8w9HYARStEpBhXxojs44E01D20jTNMN4tpauAWYjObFDdTtO1FBdiUFxcusIgvvotUSOxyJDr7fHqXfA5Vu4IeLvjY38Ap9gSshXrYgz0BNdkD/ipbefDbFUSzkOHazk3ZlQPZqna6iKYbEcGi8IoTGPTZChofsAVxl5TvfyBPytobMz3hhUnkfjI3yP/dY8KIGz0BvdIjzw+Bz1tsO5EJ9byrMzoVqvTW1n1EAQEpertXZ3qoalyGfkWR3KC7R00ZxctoJvYCA223YDAFAel+Ma1ItgKW5hLWzR0BXCQmtb0zoSqvXGwBpippVRA0FIXFaxDnZr6N7FdYae1Y5M1VBFb3LZJL6K77TWyJikDa7DhRHrEL+LelvePoH/WcunI6Fap03tYTJaRuoGEYR44H98SkNlrl09h820OuWjM7ksk9/gacy07Ua2lMONuBHlI1GWwCrWxh4NXU0sQAFreXRiY9HftDq/r5JALUSAfW58DQfIvSiroVqO9w3508i7Vks3E+8Z8ihIMvkVG6O3w4EaWI9HUQ1Xc0kk7vWHtQI18LLFQO1Iq1rnELJSWBzZaSHZsZ2fYRm6o12Ep2sIh7OWr+EtnIrn0TCuavR19tNQVcbvhjpKN7O21vit65PLyB/wiNNB+kiS0AOPoJnDJQosZQOtQYQu+NluvmjdtrCwhuwt2vY7WNvOZ1jq4F/K814uj7P8JZ79wX4sePAvSbycq+OoRvezupbwdWNl8JKm8DqHayWVTWy7oGEez+Uih0v1PC1ZPi62nCfrBUe8piE6mRkO3wyqtpvPssRR/5iXF3ByHOUxsWwaz2fSUf9YmI9wZ9zU6FtasqpMM1QC+3m8ljCJU52skxW8nJ5tJ7Qtib35t5PlOk2zVO+2nhvrRUd00RD9Yr3ggrIMDmaVbP+7HUcwM27ymgiWyVHslO1/V+RApsdFfe5lGS3hV8Zy/4WmsJlzn/3beT8L2HbCtxXig9zlWMkSnbVkFbjdek6sF91eFtKQXRInL7yRPCnXHzXmZ3GS23i3NH7Cxrn+7CT+FBe12UJL1s5Y3jPZUlPq1mDaN6xo24XArCqHOlW2v2oKP3QgF9YdmKApjH6wnsHTYv7x8RwS+fzGt+3i66wR88+7cV7Ea/MrTaHHtcZyPl5TWJLrHamN1dQbSXXZTuMSR0qX6Kkla+lEz6Z1BwZpS6McrFfw0mPGMnOzuvzEua46MYLYyEeVu4Pz8LoITzRbdszcithtlMFcn6EpdGNy2ZcsbdsFI1aAD3OfAyW8UPmdC4JJnOaA7w6E6vd8iKMZrHfxEa1OfxCszy8lXDtlf7Of1goGECzCRyM50Wwja2uLi3CzwRwvZLKWMIlTLNfDCoU+tihaE86yfqdfqiXra93vA2bdAd1OqwMWtWCdyc9ymEQWm50k4doRm8PLmNdnIpX4iRPda7HbHrb2IX/EcF6v0hQ2tfom+ebfhZrxa8l82GoZ/6n1GefO4Ih1B/b+u/ZUz6IUrH/z9ZI73OrzkwjlOx4tld0DW0zThjMjU5cZvMCHvIHxjtCV2u8TW5PL9rCf7UoNzVryD2t3+i1aMnM7AaiadQeI/j4TiEawXsOrtEZKsrc6HGxslapY9pbOoTw14ETz8HpuiERd3uMrl2F0M1+pKSxlpQZms77tKg3VShhcrpeT7dKaXdHQoTesdQeIjT6mqBww14P1Xj7DokaSrsn3nJiwkSi2g6+ypqHES/J1h14MWZvunmAH7LFQcnentvTa0Ev/gzhYP61qHu/g/tBL+jMt2TiHnkfrDhB+ZoEfMpeD9TesZfQCFfh4RFpk0bZVvI8lDV+kIcc6XJMDfXX5nxHSDIvLtKXVQp01kMZ7bVeoNWvDVSHf59driC506lm07sAB03+8DpmbwXoR9XbHUbWCvI7zHcx/vNhs9mG+kC7m6paMXzKPD3lNozO/D7fG2tKXQiz3DTnsaZcIVoG/hnqX36ohWurUc+jEyVrADjbDMp9pXIIPnTp9dicfwytIC+16Hk7H7TgdnkNlEH0y+TNewuhQr1kI9+AeFHSqHkeyF/ZrqwtjEhqHkp90FsE+LWUpLEeRkMp8Gs/DP+FcCgCQHyVRAiVRGB5K/PuvW0HsxDZsw1bsDtGbAxTEB7gotHt8MK9S1ryPqx16Bh0J1cB8tsZ2n2m4FKw/511YZeG69dEPl6CoI6UQbTZzEN7G71auXR0v4DxnanECu2me8QsASfgK54SUl/lsqKl8CI+G5ON3vMRHacZCAdRFPdRFdVRCZVRD4Vxztof/YC1WYhWWYRmWYnUI5eDhITwcUtNiJatBNdadhDnOPIFwpQOcIEb66mA7YBc4MTFnMU+36kBR9uUMB8ohyjadfbU3qgnKOnCOE7U4y+fEz+dCzIXeiV9godDWz74ZwHsua8vPFuzHT7gsgFkB2zmRr/IKNgx43crRdnVob2ydPevHOPH8HTDrDhxuLwSQiO0x62283fe2GMFYc77v4Mk27tseDuIptp04aMnsxy2W63COz+0urw7V/4s0hf1D8TKT/zOScD3expGGnvYtHMY7ebKxkN2Tu0Mp++e1fAvDs9jMugNH2tUBJGIvWGfyI1awXYRHWHHewrkO3W6u21Le5dw+zOU42OJ+ZvNZ1lcCHUNemKP3/OUNZSpfGq8MPNHj+RAXh1LCq/kOexhZXNaGW0PIwV8a6xeSuMyZt6d1B460/eweQDJ2gvUctrVdfNlYc77Kdc7ccm7adr7PNoHtPxa0teZsK/W3iOV9JdA4lJfwf7ZEU3h5CF7uY69AE8zHSy3sXL6V77JV4MmeEkrfUUcN0a3OvDetO3C07dI+dfZwC3vMegv7aR4UEJblYWcOieThEOZtOvuyiG0ncrEk9g057BFLfZ6cXItrQvb4dS2ZF8KRpPuodwBj1laSD4VetofbYt6qfUhN1nZyCIv5PtcQFQ39qcvOrDtwrK3n8QEkE17LOpODfbY9wrNivIpjnFyBbseW8zHDG9QEacfxoxC7wn9nZV8JVOSfod9nen1yZxn3cy/PDCyxYnzI+vwFQu/o15ysqfFgvV/r0/NFB8qacDJUE78HEvrCCdazAzuCIzwry2v4A/c6cgvasT/5PFs42+GdvbULoQV4oHyq+kqgpIU5Ers15+xPMuzpXvYIKKlk9uNGh57brbw3wNHrlv/f3pkH6lStf/y7jsMxO2bKFCISGUo4OHQakVLqVqhu5Tbd0nTd+2ugcsvtVlQalAZpotlUcnBkSChkCBkqElLm2TnP7w/DNZzhXWvvtdfe7/v9PP8Y9rP2s9fe7/7uZ43WW/3+z8CpZkhSG+cB5G4LfNkUroflSt4sf7c28cK+lZGbZGrENmD0w5bJ49LcdRAerLDcI9ss37WfpZanAopbl7/cbKyRWxvruVwnn4rqEMohoj/LZb4VdoHlHQ1+Npqd81Eoat15AHnZbCntQzG9rK07nCPDI9PsnZ/VkgGyPhSPom3bIaPkJjnFdRi+2EnyrsV79rPHLUkKyzgnT9StRm6jrcaaI718KaicvB3iX+loqelTUVdaXine5G60DUXNOw8gb5vmy8CFG6zc+vmS5rp6fLQicrXMDsXjaMcOyGjp5nFf9PBZB1li5Z6t9phRJzkSlWyjnsgGlqXBy6ah/7OLZW3If5/bpLdPRd1j9UqXGM0PD8Pb0XkA+dlEX/pBbvK5kXdL6Ed7m9l5odryzS/bJU97HB7lzdIsbstQWO6X7T7fs5We86NnHT1F04zcRliNdrAPhZSS4RH5Xb4rZXwp6GWr12syEr9XCO6A8wDyt9G+rPzV2zexzpHhUsV1pVi0C0KylKVf9o7TJWnayEQRCN7zOOkpP6smo3y8YyukusciHnL2/PQxcKppdYGW93xY4aupLIvQL3KVL1Ntk+VLi9c8w8CpiKxzfhec39yCbKQvA7du9UWsbS9yUk0eloelidMKLyS3+56pubFt0tXh6Q/L9EHbKndbbIk5z6f1qpZ7bn+41dmTk2P0kWGzBWC2D22Ct0dunsZ+eciHN3aq1VXCTN7i7j5BD5vzW1uwvenL6rN3eBTrLXKX1WbvmvLSkZ/lSunvcWCPN6slM5w/mF5ts5zp7ORtcs0KFlgc31BE/s/zCtBLPef+dsaFxGZfGzhVsDg5aL3nz54UeS2iv8IvfBgSfIbFe2MyU6BiQCuV523Ob2ss9oIv81/NF+TPkbesNnuXl6dP+HrOkSy53tkaWinyTkRfE4drL8PRqdvk03iXI29KJWtnruVpLPMSz10FPR0KteAOA6eHrcW7T9p7LKKCZEX4F/i9DyPCr7Z2/TlyhoHbUEp1LGayK8qJZja28Hurzd7FpG8+aw9tlzccjTUvHOlBZiOcnLZNDH1sf8ptFufidzXcdmKx54mHbne022ewqUiKxaU5zaaN/c8ayS8R/vUJBOukhedCXrBWBybvh3pOP0UjI9WCAb4Uc79mZW+VPhabvQvJDbImhoiWyD0e9zcysTMjvDzKuQGfMEm6yrSYa2uunG0tkhLyhPZQqYWec33X+8R/ZuB0vbWIX/dYQLsA1sO2bzulm8ciilpbmW+fUdY/llIdmw30pZh/xlzdtre07KT1IO6VkXK+5W3ej7fMiL4wNgU6ma6o9NYepZstQ31Zjy93a6jVIrLA82dgN8dCLbjcwMnWXmXLPXZbXS67I/q7O96ypY/HIs6wVhcm7bQdKdWx2lO+FPNATBW+UNpZvJQmMsnotq+Wh+TkwCo8DLMJTcxrVhO7VZVHjLcX/V1utLYGuZKeMa5BN8/z/txdA96R+kT7Q1K0nWy9dvfLOZ4K+Ivzzx5/7SGPBfSxVBt/GC2JNM/hvXF+K/XsJV9ebv8ooMJ3SD8pYu0iystgT/162TJRuvsy37wgK+V5VLEb82tzhPytuQz1/M1vsyk8NYbn7DvPQn1hCKYTPWngNMZS1N6kyeUYelv2oCd3ZZjUFGx/NXBymbw4v5G65s9o8EfyGaX7tsVm7xT5h2z15Xavk8d92Sw0f/NzeY2gbLtBjqVnReRa+canmjkgz/m0xlNu1kLm5BPnHCnrsfwwCHW2wcTGUy1J4gxPQwZvjkOhFgge8eRe11LCMM/AqXBMY4vsmPPbqG+v+tJj+1iuVb5UzrMYemdZ4fONniu9DTf+i82ujeCrw2SIUexWTfr6/nP9TXpaawpPkp55bJs413NveYbzuaYCs1myz1uJe5envc97xKlQCwT/9uSuOxg4VjNZWe1flGode80XsX7iuErfJvdYbFZuZm2e5B8ySE61FHXZCPac3Wap4MLSTSZYe51myenWqqSyjDhhNP9Mz7l8x5B0j1yk7VLKp5at481LU2/XCP7SdMyLWCfLXCt1YzJlq5z1PbXzMue30MyG+zI39cmjKv0di+s0V5XXLH8xZ8vncrGV8eGTI/cCsbHOWy0ZYH0V4H3yX4tL3qQfsw/XdM/rSbV39so61uYatEfcZiXypR46XjrGzajvvO12D85nW3l/7pJUA7chlGo9e8eXCTlPi0CwSNKtBZoi/wpsTe0Vco/Rw5ef3R2xV8gynwtMlq4yPrCmyTXS3VrhReRfh/Lgrzx/EpwfkoxacKGB0/dWYjefy98gn0WQ4seyPc2zfsNKDZls3Fnb0WI/zm+guY30RawHyr0Wm707W112PjfbIUONls3Ly+pE7CXyrI+FVZdHHOwTPEHqWSu8pnwmWZ73gb8kBIPJDlqWgVOaldjfMXat4PsIlrDaLmlj7FxZtliopVlGbp9SqnXtY+tjfb1YPRnn7CeYJVf4tgzI4ki9SPR7LnOzotJdxjhbKnOPDLA4WNDrc3Gl83nUAsE2eV8uMOrysbG6/S7j7rNiMisEtRmUbZL6xs4FTbE1s4YGTu0o1fo2RUq5DiFXKy79nGce62SgL8ulPBGhV8luzxKXJG1kcB5jpoO0NdLTdQi52jXOhz+tlGflPOOP9Eqy10L85oszDXf+pAVrq4xXmy9mpYXLZE4+5EMHYwuc3zqvNkcquA7hBOssP4fkB7hXRnneY6p1SK4lFvvCk3tD6ScrQ3S1o+UU1yEcZ70dTijaJV/KfdLAYzE2JttsN15D/fYQPW1BWZZxu84tFmprreFg3BRpLffJp7IxsDvo/MZ5t4UWx27rW1ONbRuCstnSy0NXQZLx0pnB292GjifJvU4XDczLdslDIerkucfRBi4rZah0lqK+FLbUwhWYbiV0jpUMP/z2uKFjYSsjf8z7zw9aVekug2Wu9Y9Y57fND1sdwLpdsVhZj0uG2rQNMtB4D9m3Q3pNJ5r+gLpi0l1GO2/Uzc9WiD/9716tb+B19JO8Llf7usO3jSFlmw3XfEuN/EaXppYjnQ1de1qosUE+FVRBush/ZJq1pnHnt80fWyeNHIdQSG6TP0L+09svHxpNS7PxA7Fh67Xn2A4LzaSj/O1DqeU4hMcDrKd1Mkp6i8mAn4LsNQtX8Zih43uRePLs2B+Gz3OyrPa91tb4vFJgsjSXO2WU703jzm+afzff24423qyDtS31/LeFcqmmS5WI7Fz9rqZD9Uhc1UHbJY95nmRlakoGB1JTa2WE3Ohpcc78rYRs8/069hruGBCVz19bNs9oZyvI3y3Um8kCo7FYfblBXpMffIrY+S3zz3bIBU5OXD1yozi/13ZZEIkrvFHTIWqvy18trhWetylLK2b/z7bKx/K3ADqxbOyL9JaRWzVLS5tGycwanovL777X3BDLl1pBuspzx6wWaGLOb5iftkdMtpj3YqVkoPNJWfqWoz1q/slIXGMtTYdhkbiqY22aNAv0hEWszEM+aNkyV/4t7XxbAaAgy7RwJWZ3Y3QEnzz/775ZNtvf97oz2e/cxKrJ9fJOjPvIn2jOb5i/dkBuCuxkSnrKbxH9yel+0mRE4Dp/1HYJeiU5fyxbhhvPTdW1kvK5lTraIG9LD18HjBVsNraeyTJyuyqSz53/ttRoVH9VC0vwXBHgZStpLPfK59qjZJzfLr8tR/oFcqKz5esI/+Ce03QoGoHhVy9pOpwU+ivK27ZLvwAygcryre91tFQelxZWNpYpyP5i4X6btOKlGudV8WePGrl96Hv9mWyk6tWKyaUyXGMosvObZcPesLiqNwRSTYZHZKBVXqbfW20nu/LTdL+Mo7gX99G2TDpZPUFtWe5rDS2SftLcYYX535C/SYoYuD0T8efOT9svTQ3c/G/jy7Y4mDF/KyRtZLCsieGKnN8sOzbR8268eVlx6Se7Iv9j0++tDvsOW9naV/RKyK8oFptoZUoTBNLCt4VvsmWm3Cc2tibVsUIWplLqtk1BIKcm6LInedlsg+2MlYWuq8FOq0FJSxlYwDx757fKls33Zf3r4yu0p4OdluyYbtNdw5Bf97faLv7mjK5sj/zXcAmO/OxCnzZuXSsDnYv0QbOxPK5JG8EncfHU+Wl/M3B61Pda3GYtuYvdkiRDhueZCLqOzqL9atS4krdlWOi5c2f6GUG411b6j6ZD1VBfjZ79KX19WnbzoPX0YeDOHhlpuPOVHfP/5b7YwKl5xDvObNgGKa3tdJqFWrzPdUUcsgrSJ9cd1ZMQt5ykvsLFPpV1FiZhomqmXF+Tf6Rre0x0HXK+TNI8voPrgH2krBqolqM3CvlS2p14E4U9Pekb5H6phqswATmuq+YQClf4XuZwA59HoeLoHeIPldQ/tH2WYqH4HUdflHZdFQCATRiMxkiTL46/QucfEVZtv9ziuZD6MioOv4X1e6uvCXEd7NVeyWtoiK/G1BZ5Hmim5L8e6yVHnnC2qlre1snC3dbf9Yw5de62QypqOw0I0RKxtixNVhx1la6jCcAe9bDC08nySqi3cvBiur3VYV5edIq2i40dlsJgn0tjY+fiPkyDed11BeRiJWWZ73d7voHTx3H6zHm3J7RdzrFQlzukhuuKOM7KyKIj1xnHDeCHeUi9g2IGfmXxH/yIm1VynDZZtdc8fj1+cB1ynug2f1dF/Ti9qxeqeXgD1Q08q2EaLvdcK8NcV8AJpOA91PP9bn+m7VEDl7iuitByO8pqeszGRt+bwEuo4SjsuiqOYSsuwY5D15kAUg1craajhpZHMfTFSvxDFYvTFzpg0ls92XXIeZKpebzuZ0qUSFLXq2UYiFQtr3MwB97HYuyROa4v/zhOwhfobOFXrC/Vt6BQHL9NvFFK3aDpkYMsC3Gkq8/RwHVlHMMqPHPoTwkh1UAzNTfm13MJ9MEKDFRl4/yH1QgVND2muA45D7bKXE2PeJZqACim+qrV6B+zXPfAFFTx4XlfhP2uL/0oCuN2LES6hd/xGpmnHcuNrqsj1NyqLUUzrMRxrlqEsbgYya4r5AhPY7cACSPVQEU1EX1Q0K+2DB7AagxSJ8W5TAOAUrqClYUc3xud/GAqDmh6pLsOOQBSVT/1Ex5FuQKOS8HzGKGK+vLEL3R90UeoggewAkNUOSu/5HHQ/SFkoFICvFPMqavO0/SYbimSJNVJjVO/YgjaFKgXQbDt0NybhJFqoLAapD5D+Tz/vwL6YTUGqIphuD+BoCvVf2KB65BzRbf5uxLquw45IMqoh9TPGIwqeR5RHVm4w7cn/mfXFwygCC7ASPyMAaqGtV+yfvvSX5zWSRS4RvP4BdhuMXGopG5X09VqPIEmTmsFAEYDSCipBoAuah7Scvn3ahiMn9E/7hu9jyVd2yOcvdW6g8rSE2p2a0l1l/oRA1Exl//rhgU4x8e6WOP0SoujM4ZjA75QV6oiVu+wbkaXgq4O6yUaXKY5+Dcbs6zHVFP9U81XP2EoOiPFVcXg4PiPBJNqoLqaihdQ5qh/aYFhWIm7VPEEen0fRL+3OoxSvU50R6anuw45cEqqvmo1Bh3TmnASPsRHPn+c/uLo+hqhDz7HnxijeqlU67/j5bJO06MjyiTc20WXUupCTQ87vdUnUlP1VmPUJnyEG1Ap6GoBsBT7JAGlGkhSt6kfcAvKoRHuwneYo260/A0eVvR7q6dhf+h6qydr9xvG+6Cy3Cmh+qgfkIleqIZK+CeW+DA163h+D/iaTsZ1GIF1WKgGqQtVSkC/4qnaHucHXC/RRFeqbfVW505J1U29rn7DLPRHWxQJ8Mz7sAyACt2blwTI83KnpsdMtArZZ831orfEYyWsT6gG8CCpLmsDOU9ltEN7dEQDJ/exp7yt6bEIp/OJK5DVUlvr+FRsdlarO+UrTMIkfB/I4rnjcLEKz5h04oB0bY/JaOU66OPQ7aluT6G2xp+Wy6+C9miP9mjo9A5+o3n8yRTqmDhF1ZGVGsdvwTpxNVenhLoIFwH4XaZgEiZBJ2591gMhmj5GHNAIFbBJy2MKHnAd9DEs1c7jErP5Owh2yy5LJddAW7RFe5wWAsnbpiUnAJ+42GmtKXk/4CTHEVdUV+JKAD/JJEzCZGywcpbfQKlOcJRqLx9peczEHvFnDq4/6A90S3cdctyy3efyknA62qIN2qJ6iJ64BdpNni1dhxwZmmOE1vFLcK7rkA9RS92IGyGyCJORiak+/xY2gFKd8KRDT6p3Y1aoxC5L8/iKaOg65Lhlt0/lJKMJ2iANHVE+RBJ9mPnaHpTqWGmueXzYdiVQ6gycgbuQLfORiUxMxx5fyt0GSnXCo984NzVEUi3ylfb1sqfaFl5fS6XQEm2QhjSEqd3meHSXAUrBma5DjgyNNY9f4jrgPCikmqM5+mK3zMB0zMBUjwvu7gClOuHR763Wn6pij6XafUPsN7SHaVZdFWlogzQ0RVKIJfow32seXx9BTSKLPqVVZdH5RYctqz6eYioDGQB2yCxkIhPfaU8sPQilmhj0Vn8dot5q/c+GdNchxzG6Ut3kUE/0ySF5mmJDd1DZaa4DjhR1tD6+N+IPCWMnyfGUPCTZv8okTMIk/Krpvx0JuQQKORbdPHMPZrsO+Qi6Ul2ePdUW0W0An6+eV39R0RLqraI7IS1cmyqGnbqax7tdylaXk1UvNVytVbqzaHaAUk0M8sws1yEfQbenOj0STaxRxa9hZWFmtbYHpVqHaprH6y7xGg4qax6/H5RqYrASeFh6q3/UXouZPdU2oVTnRh3XIUeKKprH6zYlh4NSmsdng1JNDFYC/xp7Q7Eerf4nA6XaJpTq3KjuOuRIoZtvRjOrLql5PKWaANAXsN0h6a3WlepyaOQ65LgmEaRaVxpSct18lOSFblb9m+uAjaBUEyPStT3C0QSuP6eaPdU2OeA6gADQm9gIVOMzp0UZzeOjmVWzAZwY0Uh7F9YwSPUq0d0dmc3fxCt/aB6v26Cb6JTQPD6aUs2smhihVFtNj5nY57y3mnOqSfDoTtVKdR1wxNCV6vWuAzaCUk0M0c03d2GO65ANeqrPcB0yiTy6DeBlXQccMYprHu/3FjHBwAZwYki6tkeW65C1pbodew2JZ7ZoHp/qOuCIoSvVtrZdtQuzamJI9OZW/yI/aXq0cxxx/JMIX0J7NY/XfSknOoVVEa3jD4Rk4qgexZXeit6UanII/bnVM7Hf6U9E/1Oho8twSZygu0NSiuuAI0di5NV6ffKUanIEXSHb6bi3Wn/1b/ZUE+/oSnVh1wFHDl2p3uk6YCP0Wlso1eQIGdoebpvAdc9+LnuqiQ/ozh3Xa84llOrcoFSTI9RTtTQ9XEr1b7JC0+Nch9EmCvH/LZQtur0+hVyHHDl0uwx2uA7YCL0x4JRqchS6YjbDYW/1FOtXR8iJ6H+M7HMdcuTI0Txed6BfONCTagGlmhxBtwl8B751FqtuRl8DdeI/5XNO/GeQSZrjkynV+uh2MeiNpQ4Leg3ghUCpJkfI0H4YspzFqivV+j3xRJ9EGO1cTPN43WFoRDerjubAPUo1MaaCaqzp4aq3eqMs1/TgRK0goFSfyB7XAUcOXalmVk0SDt3cc7qj3uos6J423UWYCUdR1wEEgK5Ub3UdcOTI1jw+mlm1Xl81pZocg35v9Twncepm8w1xMnuqAyARpFp3O4ktrgOOHLrDxKIp1cyqiQfaab9ss5zEqT+nmgRBIki17gK8W1wHHDl0J19RqknCUUy11vRw0Vu9SZZoelCqgyERpLqK5vGbXQccMUR2a3okQl91EijV5Bh0m8Cn4UDgvdVTNXuqC3GjjoBIhGFllTSP/811wBFjt/awsjKuQzaCWTXxhK5Ub3fQW62byTdHWfZUB0IiZNWVNY9f73hbm6ih2/xdAiUi+evmsDLiiWYop+mRFXiM7KkOK5TqE8nBOtchR4qNmsfr3o+wwKyaeKKQ6qDpEXRv9Z+ySNODc6qDIhGkuqa2x1rXIUcK3Q8b3Q6JsMCsmnhEf251dqANfNM0+7JS0CbI8BIa3T2RokhdbQ/djWUSG12p1h3mFxaYVROPnKd5/FbMDzQ+3Sy+NYpFsi8ripSM6GhcHWpotx0sdR1ypNCV6oquAzaEWTXxSB1VR9MjK9D4vtI8nj3VwaFUqtbxadJPvpJ9kRp2laRO0fRY5jrkSPGD5vHRy6p3S6b8Sy7X8imOqE5KIxbpgsFax2fhXp/OvFP2QbAFwG7sAbAFgn3YCWA7DiAb25CjncPrthIQL5TFJo2jZ2AGHkVxtJYMZKApkiLR/lFPU050xSexWah5fDXXAcdMtsxHJjIx3WBd+BKgVJMT0JXq6Vgr+3BwsYc92A1gK3KOktgD2A5gJ/YhB1txWIY3A9iLXQC2IfvQMf5TES3cVWQCUtbAZxcykQmgAjpIB3TAaSEX7Pqax6/ATonmhKLg2S+63QW6dyN4cmQhsjAFWR7Wg2dWTXKhLVK1lkPcguquQ86TCyKSqcULJlJ9mE34AB8AqCztkIE2OD2kd66Z5vEH8B3aug46IizWXgG8nuuQ82GVZCITk/GH55KYVZNcKKwukJGug/CJi1wHkGB4kerDbDgk2TUlHR3RAdVDJtnNtT3mUKpjZKLm8amoGrKn43AWnYWv8KdvZVKqSa50QXxIdSFc4DqEBCPVx7J+xnAMB1Bb2iANF4VGsutotjoBc1yHHBm+1Dxet4XDLv5l0cdTDpRqkgsXIRkHXAfhA2ejfEhe74mCH1n18azCKowAUFsy0AbnOt/QVKmmMkXLY5rbgCPDLpmu6aHfwmEDexJ9mPKgVJNcKKdai+6kqDDC5u+gsSHVh1mFV/AKDkp2Bs5FOWeS3QJ6Uv0rlkrYB8uFgbHaY6PPchrvQYmeojXrwYwKoFSTXOmiPX85jHRyHUDCEcQyjwcluxDOlA44D20dLHHTFv/V9JiM04IOMoK8pXm8crRn3hKZhCn4ymIWfTzlAahIrT9AAmKFnOo6BM/UxGoo5jKBkilBz2MvijRkIAPNArzXW6U8srU8uuEjPokFsFGqYb+WRxPMD7RWN8hXyMQX+CXQegGAr3GOYlZNcqGuqifLXQfhkcso1IFzcuBn3HNoVnYVdJHL0QFFArjnZVQz0Rsq9iV2Cxe4zZ93NYU6uJUIs2UGxmE8dDcK8o/a4MKiJA+6uA7AM5e5DiABCV6qD7Mer+JCVEYv+VT2WG8qTNc8fof2NKREQ+RlbR/7Ur1F3pVrpBLa40mHQl0KlRSlmuRB1KW6Alq7DiEBKa0qOD3/FozAZaiCv8m3VuVad6tY4GNndRINxmmvlV7Eak/1n/KWdJEquBbv+Tg/2oyDU9Io1SRX2kR2z5qDXIJkNjg6IAzDp7biFbRAcxlmbSuQdO0NP0fDfq4fZZ7V9khHSSu/cJHRcolUxnUYq712mh0ObuNLqSa5kqyucB2CJ65xHUCC0sB1AEf4DjejHr6wIpDF1PmaHpvxqesKCTELZZK2j60OrofRFWNCta5EBgBKNcmTq10H4IFq2r2JxB/OdB3AMfyMzhhtRawv1fZ4zXVlhJj/QPcmJaGrlUjmyBOuK+M46h56l1GqSR6koZbrEIy5DoXY/O2EdNcBHEc2bsTvFsS6s/aSFJOxmk3gubLKYM+BlpZW/+6jOQ3PPo8dmslCqSZ5oFR31yEY08N1AAlLA9R0HcJxbMK/LZRaXqVpeuTgOddVEVKeNGhuttP8PV5muq6MY0jGY/jLoU8SLoFC8mSxNHIdghEdMJk5tTPGyvUBruMUCylYilq+PxEvyW2aHiXwEyrwyTyOdVJbe/hWEn6ysH2LSAt857o6jlAI3fEAGh25SmbVJE9OV9HcvO+frgNIaDqrH/EkarsO4yj2or+FUq9CiqbHTgxxXRUh5CmDcdYdreyz9nFohLoGHsRyvKcaHXWVzKpJPrwj0WtKboJ5XKfMOTkyHSPxITa6DgQAkIxVFl7u3eVDTY+yWOFwm5EwskbqaW/SAYxAD99rMUcaY7Hr6kBxdMP16ICkE66PWTXJhytQ2XUI2jxCoQ4BSaqdekGtwwT81ep+W7FxAC9ZKLWXtsdmK/3mUaa/gVCXRjcLkYx1LNTJ6Ihh+A0j1LkqKZc3GLNqki/PyL2uQ9CiO0ZRqEPGPpmMMRiHnx3GUAFrUNTnJ2O/VNNuNUjBDziFT+ghlkkjgyFlN2KYhRpsJ672FS+OC3ApOhfQ3kKpJvmyR+riV9dBxEwNfIMqfBGGlFUyBmMxVXtbBn94HTf4/mT0lSe1fbpgNJ/QQ+h3IQDAXDT3vQbnyNkOrr8cOqELLopp3TVKNSmAL6VTqNbuyZtT8aWFkb7EXzbJ5xiLSYGPEm+JWb4/G79IHYPfxse4jE8pgLlytvbSJ0AaplmoPbOPBlMUmuA8dEKaxvoPlGpSIJ/KgyEYcJEfldEal+FKpPAVGBFyZB4ykYnpBn2VpixDPd+fj8tFfyOOaliEMnxScZ5kGniNxJW+190qqRfQ0ieV0Q4Z6ISTta+BUk1iYpnMwjeYjRXY6jqUQ5RHXdRBXTRAS/b+RZbdMgOZyMQ85Fg/V3/08/05mSrpBl4cUQGMkqsMvE7GahT2ve5ulxctX21xtEYGMtDMeNArpZpo8qeswmr8io1Yj9+xEZuwDbux09LZyqL0ISuD0iiHyqiMk1EZ1VAi4V928cRGmYwsfIUfLJ6jHpZZeGbOlAUGXm/iuoR+frdIQ/xm4PcE/ul7vW2RatbeXyXQGu3RHi09f2BQqolPbJVd2I3N2I3d2IJd2H1M/r3tmAambRCUAYBDE3lSoQCURiEApZCMkocFOqFfZ4nIRvkGM6xl2bNxlu9P1NvS08CrFL5D3QR+um+RoQZeZfGThXfCYLnb9+srgVZogzS09a1TjlJNCAkdf8o0TMUkLDQYeJQ3fTDI9xd9tjTEcgO/5piJIgkq1rOkjdGnmI0uDJEGWOZbaaXQFu3RDi2Q7HOklGpCSGj5XbKQiS/wiy+lVcUaC3uuvSk3GPn1xcCElOp90hRLDPzKYDXK+l5jE0V37/HcKIlzkIE2ONva5xelmhASehbJBHyEWZ5z7ClI9/1VekDqY5WBXxI+QLcEFOt+8qiR30N41EJtdZNPPHiXRVu0R3ucaX3bXUo1ISQi/CJvY6inDPtveNnCK/U1ucnIrzimokWCifU06WA0MaocVljIqddIbaNVI8qjLdLRHo2RFND9o1QTQiJEtnyMh4x7F8vjNwuTfbKlieHKA1XxjZVdosLKZmlquMDsM7jbQj09JAO0fe7G9WgUmEQfhlJNCIkYB2QwHjTYPBEAxuFiCy/ZcdLZ0PNMTItpYcl4IEe6YLyRZx0ssdALvF9qYL2mT3ms9X01+VjgzlqEkIiRrO5TM3GSke/rViLqpEwHJ83HlchOkIzpIUOhBgZaGa71mbZQA72cCDWzakJIRFkhHbBW26sw1qCyhZftAmluvDjlbRiSAFu3fiBXGQ4LbI3pVurnQpmg6aGwBKc5uVPMqgkhkaSuGoti2l778ZaVaJqovxr7vohobTVrwnTpZSjUyXjRilD/YrAGeTtHQk2pJoRElibqvwZewyBWGhMHopKx7yD8I64bOH+QrsYbs/RBEyvy+KpBK0hvG4HEBBvACSGRJUdaYba211S0s/Lyf0d6ePC+F0/FaSP4z9LecNw3UAOLrQy7y5ZTsEbTx9WQMoBZNSEkwiSpZwy8XrUUzbXKdBw4ADyN/nGZOa2RDsZCDQyxND5+vLZQA9c5E2pm1YSQiJMhkzQ9UvCzlaFlwGpphF0e/B/GI3GWWa+Q87Ha2LsHRliqj0tkjLbPYjR0dneYVRNCIs0D2h578ZqlWE5RAz35P4qb5UAc5U/zJM2DUFfH85bi+kU+1/Zp71CoKdWEkIjTQZ2u7fMC9lsSxDtwkSf/YbgUO+NErL+UDthg7J2EN5FqSRyfM1hO1N2QsoO1QQghkUZ/Be51+NRSLEq9icqeShiHdGyIA7F+RTofs2e9Ln3Q0ZJQbxf9VpXy6GYnmBihVBNCIk5PFNX2sdW0ClRSr8KbxsxFG/wYabHeK7fI37DfQwlN8W9r0b2BLdo+1zscUgZQqgkhkae80s94puFba2LYRd3qsYSVaI0vIyvWK6U1hnoqoSw+tCaNOfKcgZf5Ajf+QKkmhEQek37EIRbjGYRzPJawCRfhEcmJoFy/J83xnacSkvAWalvLYUdjpbaP2yFlAKWaEBIHtEM9bZ938as1ISyiPjHcTuR/5KA/MiLWa71Fesk1nnqoAeABdLYojCYz8d0OKQMo1YSQOEAp/XXC9uFZixFVUe+jsOdSpqAFvo6MWL8vDTHCcymd0M9ijNNkmraP6yFlAKWaEBIX9DIYyvUytliUwbZGK6kdz1q0x5MRmGu9SDrI1fjNczlN8B4KWcypHzTwcT2kDKBUE0LigpqqjbbPdrxiNaY71F0+lLIffdHC4iA47+yU/tIcWT6UVBVjUMqiLE6Qrwy8XA8pAyjVhJA4oaeBz7PYa1UCn/Gp6XQBWuEhsRurGTnyltTFI9jnQ1klMBbVreavDxv4uB9SBlCqCSFxQnekaPuswzCrMSWpd5DmS0n7MQCNkBUqsRYZI81xHdb7UloRjEIzq6I4UvR3YQvDkDKA23UQQuKGK+QjbZ9qWIEUqwLxh6RhqU9lJeE6DMBJIcjycuQjPIpFvpWXjJHoZvW61kszg770Clhr+fmIDWbVhJA4wWS36LWW82qgvMpEXZ/KysEbqId+stVpjiXykZyJK30U6iS8ZlmoV8q5RoPeeoVCqJlVE0Lihn1SBZu1vezn1cAaSccqH8sriz6409pmFvmxXUbgBSzxtUyFF3Cr1WvZK2catWwo/ID6oZBqZtWEkDihiLrEwMt+Xg1UV5NRy8fyNqMfauAWCXZc+Cy5Q6rhdp+FOglDLQs18KlhF0S7kAg1s2pCSBwxRkzEOoi8GlgtHfCz76U2x1/QzeIynAAgMg8f4X1f2wUOk4w30MN63d8hLxj5vYNrKNWEEOIvu6SMwU7EwBDcHsAr+Ve5AIutlNwUl6AjWvr+wbFOpuILTPCw63T+FMG7uDyAmu8uHxp4lcfaECx+chBKNSEkjmgi3xt4BZNXA5ulM2ZaK704WqMVmqEZani6ls2yCAvwNWZYaAU4mjL4AOcFIoVXySgDr3vwdEiEGkh2HQAhhPjH6TCR6rUYhtsDiK6smihXYpyl0nchE5kAgArSEHVRF6fiJJyMygXkhvvkd2zAaqzGT1iBxVgbQE0ANTAWZwQkhScb+KiQzKg+FA2zakJI/NBD3jHyq4qVKBaIcByQ2y0vaHoiqSiHUiiJEihzOApsx27swTZswLaAowGAZhgT4Pzwt+Q6bZ90TAlNTs2smhASV5j0VAPAbxgRUBaVrIaiifTB/uAqBVuwJcCzFUw3DEfJAIWwg4HPDcGFFwOcrEUIiSMWGPoVwjkBRnmbmozKAZ4vTBRCP3wQqFAD1VVtbZ+JQQZYIJRqQkjc8LssM/S8CY0DFY80NQtnBnnCkFABn6O/Sgq8abmjtsc7mBmi/mFKNSEkbvgSZm/XMngs8Fhrqa9xh8Eu21GmFeYGNOb7eK7W9hDchZzQiDWlmhASN7xo6PcwKjoQkKLqefUFqgR/Yickoy+moqajb5MO0G8Cn4s33ASbCxwBTgiJE+ZLUyO/OljscFOGDXIdJrg6eWDUxAi0ddqE0F8e0faphGVOVlo/EWbVhJA44VlDv2ec7p5UWY3HcyjlLgDrKNyChY6FGrjeQO424lG3QR+BWTUhJC5YLqcbTdXKwMQQ5E3r5A584joIK9TFUHQMQQ0DF8kX2j6FsQANQhA9s2pCSFzwoJFQF8IzrgMHAJykPlbvoKLrMHymCB7GopAINfBPA5/9+LvrsAFQqgkhccEC+cjI75bAFrcsmGvUMvRFiuswfCMD3+ER5bJz4VjaqzYGXpPwWQgan9kATgiJAy4Uk6FZZbEcFUIjJQf5UR7AB66D8EwDPI2LQlazwFjpYuDldtjhQZhVE0IizwQjoQb6hU6ogVPVKDUJzVyH4YFaeA0LQyjUQCeYzBFYGYJOEmbVhJCIs0caYaWBX30sROEQCspBMuVBfOM6CG2q4178LTS7PJ/Ie3KNgVdJLMXJTq+JWTUhJOI8aSTUwDMhFmogQ81S49HKdRga1MTz+BF3qfAKNXCVUV69A30dx82smhASaX6Rhthp4BeOSVoFM0WG4DNkuw6jAFriHnRDcgRqdLx0MvBSyEI7h1dHqSaERJrL5FMDr2TMQ6MICMtBfpGXMQy/uw4jV4rgUtyF1pGpS+BcmWzg1RRzUMjZVVKqCSERZqKcb+R3J56NkLgAwF4ZhbcxKVT5dUPciJ5O1k/3whxpabStyyu4mVJNCCG67JPGMNn2six+RPmICcxB1sv7eBdzXIeBKuiGHmgVyToEusuHBl4VsdzZiuCUakJIZHlcHjDyex53RFRkDrJMPsF4zHSSYVdFN1yBtg4bg73zo5yO/QZ+fTCIUk0IITqskQZGA8oa4PtIDIAqiM0yAeMwIaA+7GS0wgW4AM2QFAd1d5c8Z+BVGPPR0MnVU6oJIRHFrBkT+BwXxoHYHEbkB0zHdEzDT1bKT0ELtEIaOqB0HNXaNqmP9QZ+5yKTUk0IIbEySTKM/C7Dx3EkOUfzq3yHBViA+ViFHI9lFUdDNMYZaIlmzhfVtMMwudnI7xNc6qA+KNWEkAiyT87EDwZ+KViIU+NSeo5mhyzHaqzCaqzCGvyBTQX2aiejPKqjJmqgFmqhIWrHRTN3fuRIK8w28KuNxQ5WY6NUE0IiyFNyv5HfQ3g0ziUodzbJJmzBDgCbAexDEQAKqQDKojzKxVXjdqzMktZGk7YG4AFKNSGEFMQGqYdtBn418AOKJ6Aokdy5Qd408CqBZYGvCM41wAkhkeMBI6EGnqJQk6MYiDIGXjsdrAjOrJoQEjG+k7OMhk11wGQKNTmGQXKPgZfC9ICXUqVUE0IiRnv5ysCrEL5DY0o1OYYDchbmG/g1xdxAB96xAZwQEineMxJq4HYKNTmBZDUEJo/FPLwZaJzMqgkhEWK3NMDPBn7lsSyiq34T29worxt4VcJylAnsiWJWTQiJEP8xEmpgIIWa5MGTqGDgtREDAoyRWTUhJDKsldOMVv1uhjlxv6QHMecV+ZuBVxF8j/oBPVXMqgkhkeFBI6FWGEyhJvlwE1oZeO3DvYFFyKyaEBIRlkojo20fe2E4hZrkyzw5y+jZGo+LAnm2mFUTQiJCf6OXaWn8x3XgJPQ0VbcZ+d2HA4Hku5RqQkgkWCgfGPk9girMqUmBDMBJBl5L8Gog0bEBnBASCbrKaAOv0zEPhSnVJAbekR4GXhXxYwCTtphVE0IiwFwZY+T3PIWaxMi1qqOB1+8YGEBszKoJIRHgfJlo4HUt3qZQk5hZLo2xV9urKJaipuXnjFk1IST0TDcS6lJ40nXgJFLUU3cbeO3B/1mPjFk1IST0XCBfGng9jXuYUxMtdklDg/XwFGbhbKvPGqWaEBJyFssZ0H9TcUAZMeEzudTAKw3TKNWEkETmZhlm4DUZHZwJ9U75FFOQguboiFr8XCiAbBmHGdgChZNxNtqgpOMa6yJjDbzGopPFuCnVhJBQs0lqYLe213n40tELf4U8g3ew7cjfW+AKdEdtCnYe/CRd8f1Rf09GM2SgJ05zVmOr5XSDJ64pvoWyFjOHlRFCQs3LBq9NwGSGrHe+l6vlNLx0lFADc/FP1EF7eU/2MjM6gfXS+RihBg5gNh5HA7SSl2Wzkxo7RZkME5sHsyV6YoNZNSEkxOyTWvjNwG8q2gWclc2QgRiXb596RdyAW3AK8+sjjJS78727RdET96Fe4DW2VxpjubbXaViEQpZiZVZNCAkxHxsJNfBLoFHOko6ShrEFDH77HU+iHq6V75khAZggLeUvBdzdPXgVDXCFzA64xlLUEAOvpRhhLSJKNSEkxIw09Hs/sAiXyGXSClNiPPoA3sWZ6CzTElqup0iaXIjZMR2bg4/QEh0kM9AaO0+db+D1iLXNO9gATggJLTulAvYYeSZhNppbbzj9RfrjLaP9voDW6IsuFgcihZMcGY1nMM3ItwMexzkB1dcouRYHDPzew1+sREipJoSElq+ltbFvE8yxOq96kzyOFw2WoTya0/EPXJ0ws793yBt4Fis9ldEVA9DIen2ZCjXQDlOtRMcGcEJIaPnDg+8C3G8trr0yUOpgkEehBhbjOtTFk/JH3OdMv8j9Uh13ehRq4DM0QS9ZZbW+zIUa2GApJmbVhJDQsl2qY6sH/zdwvYUc51O5z7PkHEtRXI3bA2iwd0G2jMerGG/YTZA7RXAnHrS09eRI6WEs1MAHuIIN4ISQROMp8ZIbp+AzXODrq3OR9MEkS9d6Dm7DFSgWR4L9k7yO1/GrlbIr4THc6PvkKG9CfQtesnT3KNWEkBCzTxpjmQf/4vgCbX16ff4h/TDUw4s8FsrgStyAVpGX630yBq9iInKsnqUxBqGjj3XlTajTMBFFKdWEkETkG0nzJI+lkYmzPL9AD8jL6Ic/A7rm03ADrkb1iAr2GnkFw7A+oLNdiv+iri815U2o62Emylu7Y5RqQkjIGSAPefIvjyyPo4anyW1YFPBVK5yDK3A5akZIsEUm4UWMsdzycDxFcA8eRAmP9fS+9PQQdyXMRB1u10EISVyy5VxM9VRCFXyFUw1fpL/LPzDcYBNOf1A4C9fiGlQIvWBvkeF4yVNnhReq4Slc5aGOvAl1cUxGS26CSQhJbDZIc4+Dk2pgqsF2lDkyDP8KrNk7b4qgM67HxdZWmPbKShmEN7HTcRQd8TwaGtWQN6FOwke41PKdoVQTQiLAN9Le4yzmWpiiKdbz5VbMcn3hR3EK/o4bUTpkcv2NPIVPfJ2KZU5h/B39tGvofenhKf5ncaf1e0KpJoREglelt8cSdMR6mzyMISERoKMphZvxT1QMhVznyFg8ZbhIqD2q4klcq7Fgq7eMGuiH/gHcDUo1ISQi3CdPeywhVrEeKfdgnevLzZNSuA/3oKRTuRb5BA9jseuqyIM0DEGTmOrH26hvoA8GBXIfKNWEkIiQI1fhQ49lFCzWP8rtmOj6UgukGob7OqNYj/HyEL5zXQX5Ugi34jGkFlBDXoX6rxgW0IYrlGpCSGTYLefia49l5CfWe+QJ/Mfzyt7BUBjjkeFArOdIH8x0ffExUQlP4Hok5VlHXoX6Srwb2EA/SjUhJEL8Lq2xwmMZeYn1F3KHz2t72+U0LM5HiGwg8jCeCGEPft60xAt5rK3uVagvxicoEljtc2ctQkiEqKjGobzHMn5CB/x0XJayVrrLRZESamApxgd8xjEYECmhBr7B2bgll53LRnkU6vb4MEChplQTQiJGPfUpinos41ixPiDPSEPPveAueDHg873m+oINyMFQ1MfLknOUXHvZ5hIAzsLogLdVYQM4ISRyjJSrPa8fdrgZfKbciu9dX5AhyfgVlQKTjE1SNeAlQ/2kOYbgHAV4F+ommGRxte/cYVZNCIkcVymv07YOZtbfyk2SFlmhBg5gVIBn+yzCQg18i9b4q2wUr0J9BjIDF2pm1YSQiNJfHnEdQr5chQH4Cs9a/hBojRmBycbF8rnlMyik43pMwHvW1lwvg52ehLohpgTYjnFUzVCqCSHR5H55ynUIeXAansX5h17o0+U5fGxtMJbCSpwSiHRskcrYZ7H8VFyJvx/aAW2O3BmqJV0PcyqycJKT2exsACeERJQn8VfXIeRCWTyPhUeEGkhTo9RS/B2lrJxN8H5A1zXemlArpONdrMdQdXir0rPUDAxFxYCuLFbcCTWzakJIhMmWq/GB6yCOIgk34d95bFi5VV7DEKz2/ZyNsSAQ+bhG3rNQagVch96ol+sVbJF+eDE0/eO1MRXVnK0PR6kmhESY/XIZxrkO4hBn4blDY4zzIkfG4Tlk+nzeVQE0gWdLZfzhc5nN0Rs9C5j0tEzuhu0e8liogayAOhpyhw3ghJAIU1h9gPaugwBQFUMxqwChBpJUFzVRzUNvFPPx3EF8qszwVahT0RsLMVf1VgXNTq6vxqvRqB3AFeZHdUxxKtSUakJIxCmmRqO50wiK4H4sQ28V6yKfZ6qhahUe8q0vdkwA1+jXumgn9ksXTBe1GI+heABXmTs1MAW1HW87ygZwQkjk2SQZWODo3BdiMOobvch3ywgMwlLPEaTgd5SyLCWNxPuGlxVwHW42rCtgjfwDI61N4sqbWpjsOKMGKNWEkLhgs5yPuYGftQ6eQHdPr3GRSXgW4zxK0EfoZlVM1kk1jxHG0i9dMLPl75ht80JPoKbzpu+DsAGcEBIHlFUT0SLQMxZHPyzyKNSAUhlqjJqH3p7WNbfdBJ7pQahj75cumLPV1xiOSpav9n+ciumhEGpm1YSQuGGLnI85AZ2rM4agpq8v8Q3yEoYYDt6qiPVWt8O8Tt4y8muO3uiB4j5Htln6BzKJqx4m4+RQCDWlmhASR/wp5+E762dpjOfQ3sorfKcMx2D8aOD5dYGjz71QTX7V9PDWL10wC+UuTLF3wQAaYhKqhESo2QBOCIkjyqlMy6PBy+J5fGtJqIES6ja1FJ+inbbnBIvXvERbqO/DWjyl7Ak1cIaarD5ATXvlY0qIhJpSTQiJK2z2WSehN5bjDpVs9RWepLqqqUp39+xJFiPSL/t6pAQgc1eoH9DfyiSuJpjsZFOOvGEDOCEkzrDTZ90Og9E0sNf3HknFXo3ji+APlLQUXTf5ROv4itgAFVhN/SL3+7wV6Fn4AuVCJdTMqgkhcUeqmozzfC2xGoYjK0ChBooqvYb8fZhmKRIR3ZLbByjUQA01Us1CS9/Ka4fM0Ak1pZoQEoeUVGNwhU9lFUc/LEcvFaT8AEAbzeNtNYF/j02aHsEv9NpSzcRwVPahpIvwBUqHTqgp1YSQuCRFvY+bPZei0B1L0N+HGcH6hEWqs7Q9XKzJnqR6qaXoiyKeSumKTzwv02Lp+lwHQAghNiikhqKfpxJaYDpGKX9nT8dOG+ideAF+tzL0aKrm8eVwuq0qKYBUNVAtRCdj/x74MJDhcCZQqgkhcYpS/dXTmoJ3mJp4G7PR2uGLu4I6Vet4wWQLUeTIV5oe7a0uxlIQ9dRYNRr1DTz74C3YHdvvBUo1ISSOuUe9hcKaPmUxEEtxbeC908ej2wRuQ6oXaq+f5n5L0i5qEYZqLj/aF4Oc3+/8oFQTQuKaHupjlIj56BTcixXoq4qG4LWtK9WZFmLI0vZwL9VAsuqtluE+pMR0dBKexcAQ3O/8YySEkLims5oZ07pWBweRPaXCMlVHV6pXYbXvvdVZmseXQ2Nr9aFHqvqv+hE9C+wAKYr3cGdI7njeUKoJIXFPY/U1zi7gmAzMxShVO0Qv7fqooOnh9yjwHO051W2d9lQfT3X1lpqBVvkcUQlZuDJEEecFpZoQkgBUVVm4Ic//TUcWJqpmIXtlK9Va08NvqY5iT/XxtFIz1Wc4I9f/q4eZaBmyu547lGpCSEJQTL2u3sql17oNJmKKsrUBhzf0B5aJr03g+ntXpVusDXMuUQswCvWO+9dzMB11QnnfT4RSTQhJGHqqucfkfemYgukqI7Sva92seiMW+np+3YlaqaHpqT4epbqrxXgVNY78y98wBRVDe+ePh1JNCEkgTlNTMAKNUQl/xbeYotJD/bJuEeMY5v/h54Qt/TnVaSgU4vpMVjepFRiBNqiLUXg5FKP8Y4U7axFCSGhpIzO1ju+MMb4J0HxpqunxFO6NkPxFCWbVhBASWnR7q6div2/5V5a2R/gGlcULlGpCCAktulK9HXN9O7fu6t+loZuFk1ihVBNCSGjR3bTDvwlbJnOqw9xTHW0o1YQQEloqqHqaHn5J9fdxMKc6fqBUE0JIiNFtAp+Jnb70Vmdpe1Cq7UGpJoSQEKMr1fsww5fz6vZUl2RPtUUo1YQQEmJ0pdqfJnD9nuo0FGZPtTUo1YQQEmLqoaKmhx9SzZ7qcEGpJoSQEKO/acc8/Om5t1q3+ZtSbRdKNSGEhJpzNY/PMdhm43h0SyiDswKrj0SEUk0IIaEmQ9vD60rg2aKbVXdAMnuqLUKpJoSQUNNAVdf08NpbPQdbND3OC646EhJKNSGEhBzdJvBlWOOpt1pf6inVdqFUE0JIyAm6CVxXqmviVDZ/W4VSTQghIScj0JXA98jXmh7nB1wfiQelmhBCQk5ldYamhxepnoY9mh5s/rZNsusACCGEFMR5+F7r+HV4QCqhOFJREsVREqkogeIoHVNyrtt4noSOrqsn7lG+7UJOCCHEEhPkQl/KKY3iKIFUlEAJlEQZlEBxlEEplEBxlEUJFEcpXIF5WmW2wBz2VFuGWTUhhISetiiOXT6Usw3bfI+Nzd/2YV81IYSEnuLqAtch5Ekn1wEkAJRqQgiJAJe5DiAPKuEc1yEkAJRqQgiJAF1QxHUIudIVhdhTbR1KNSGERIBU1c51CLnS1XUACQGlmhBCIkEYm8BLai96SkygVBNCSCToFsIX9kUoyubvAAjfnSeEEJILVdTZrkM4ATZ/BwOlmhBCIkLYmsAL42LXISQIlGpCCIkI16CQ6xCOoT3Ksvk7ECjVhBASEaqpcK0Mdq3rABIGSjUhhESGv7oO4ChK4HLXISQMlGpCCIkMXVHRdQhH6I5SbP4OCEo1IYREhiIqPI3O17kOIIHgJpiEEBIhFskZrkMAANTEKiQxqw4IZtWEEBIhGqk01yEAAK6nUAcIs2pCCIkUE+RC1yEgGT+iFqU6MJhVE0JIpLhAtXUdAq6iUAcKs2pCCIkYK6U5tjo8f2HMR0NKdYAwqyaEkIhRR81AbYfn70+hDhhKNSGERI7T1QI8gtIOznwq3sf/UagDhg3ghBASUXbLRHyGufgB+62fqxSaIg0ZSIeiUAcOpZoQQiLOflmKX7ARv2IjtmIXtmAndmPbkf/fg91H/rwdB478ORWHVVch9dCfklAGRVEMZVAU5VEO5VERNVEblSjQDvl/H9MIi5SQHM4AAAAldEVYdGRhdGU6Y3JlYXRlADIwMjEtMDMtMjVUMjA6MDY6MjkrMDA6MDAtSj8OAAAAJXRFWHRkYXRlOm1vZGlmeQAyMDE2LTA0LTIyVDE2OjQwOjA4KzAwOjAwff0G+wAAAABJRU5ErkJggg==;" vertex="1" parent="1">
          <mxGeometry x="460" y="370.07" width="120.05" height="119.93" as="geometry" />
        </mxCell>
        <mxCell id="32wc3V-l8G8s6lL-Zdti-7" value="" style="rounded=0;whiteSpace=wrap;html=1;rotation=-90;fillColor=none;" vertex="1" parent="1">
          <mxGeometry x="-170" y="245.52" width="562.43" height="397.78" as="geometry" />
        </mxCell>
        <mxCell id="32wc3V-l8G8s6lL-Zdti-5" value="" style="image;aspect=fixed;html=1;points=[];align=center;fontSize=12;image=img/lib/azure2/integration/SQL_Data_Warehouses.svg;" vertex="1" parent="1">
          <mxGeometry x="660" y="230" width="123.32" height="125.25" as="geometry" />
        </mxCell>
        <mxCell id="32wc3V-l8G8s6lL-Zdti-8" value="" style="rounded=0;whiteSpace=wrap;html=1;rotation=-90;fillColor=none;" vertex="1" parent="1">
          <mxGeometry x="241.63" y="321.43" width="556.79" height="233.95" as="geometry" />
        </mxCell>
      </root>
    </mxGraphModel>
  </diagram>
</mxfile>
